G75*
%MOIN*%
%OFA0B0*%
%FSLAX25Y25*%
%IPPOS*%
%LPD*%
%AMOC8*
5,1,8,0,0,1.08239X$1,22.5*
%
%ADD10R,0.07400X0.07400*%
%ADD11OC8,0.07400*%
%ADD12C,0.01200*%
%ADD13OC8,0.02900*%
%ADD14C,0.00600*%
%ADD15OC8,0.03200*%
%ADD16C,0.01600*%
%ADD17C,0.02000*%
D10*
X0021800Y0010200D03*
D11*
X0021800Y0020200D03*
X0021800Y0030200D03*
X0011800Y0030200D03*
X0011800Y0020200D03*
X0011800Y0010200D03*
D12*
X0005500Y0005500D02*
X0005500Y0044500D01*
X0018173Y0044500D01*
X0021173Y0047500D01*
X0021700Y0048027D01*
X0021700Y0054773D01*
X0021173Y0055300D01*
X0020427Y0055300D01*
X0019900Y0054773D01*
X0019900Y0048773D01*
X0017427Y0046300D01*
X0005500Y0046300D01*
X0005500Y0084100D01*
X0016827Y0084100D01*
X0017427Y0083500D01*
X0017427Y0083500D01*
X0021100Y0079827D01*
X0021100Y0078627D01*
X0022827Y0076900D01*
X0023573Y0076900D01*
X0024100Y0077427D01*
X0024100Y0078173D01*
X0022900Y0079373D01*
X0022900Y0080573D01*
X0022373Y0081100D01*
X0018700Y0084773D01*
X0018700Y0086822D01*
X0020520Y0088642D01*
X0020960Y0089704D01*
X0022061Y0090988D01*
X0022300Y0091227D01*
X0022300Y0091267D01*
X0022326Y0091297D01*
X0022300Y0091635D01*
X0022300Y0101300D01*
X0101300Y0101300D01*
X0101300Y0070300D01*
X0069027Y0070300D01*
X0068500Y0069773D01*
X0067300Y0068573D01*
X0067300Y0067827D01*
X0067827Y0067300D01*
X0068573Y0067300D01*
X0069773Y0068500D01*
X0101300Y0068500D01*
X0101300Y0016276D01*
X0100520Y0018158D01*
X0098158Y0020520D01*
X0095071Y0021799D01*
X0091729Y0021799D01*
X0088642Y0020520D01*
X0086279Y0018158D01*
X0085001Y0015071D01*
X0085001Y0011729D01*
X0086279Y0008642D01*
X0088642Y0006279D01*
X0090524Y0005500D01*
X0056276Y0005500D01*
X0058158Y0006279D01*
X0060520Y0008642D01*
X0061799Y0011729D01*
X0061799Y0015071D01*
X0060520Y0018158D01*
X0058158Y0020520D01*
X0055071Y0021799D01*
X0051729Y0021799D01*
X0048642Y0020520D01*
X0046279Y0018158D01*
X0045001Y0015071D01*
X0045001Y0011729D01*
X0046279Y0008642D01*
X0048642Y0006279D01*
X0050524Y0005500D01*
X0026197Y0005500D01*
X0026700Y0006003D01*
X0026700Y0012979D01*
X0030421Y0016700D01*
X0031300Y0017579D01*
X0031300Y0040300D01*
X0031752Y0040300D01*
X0032902Y0039150D01*
X0035098Y0039150D01*
X0036650Y0040702D01*
X0036650Y0042898D01*
X0035098Y0044450D01*
X0034398Y0044450D01*
X0034850Y0044902D01*
X0034850Y0047098D01*
X0033298Y0048650D01*
X0032598Y0048650D01*
X0033050Y0049102D01*
X0033050Y0051298D01*
X0032434Y0051913D01*
X0032500Y0051979D01*
X0033421Y0052900D01*
X0033421Y0052900D01*
X0034300Y0053779D01*
X0034300Y0063379D01*
X0040021Y0069100D01*
X0042552Y0069100D01*
X0043702Y0067950D01*
X0045898Y0067950D01*
X0047450Y0069502D01*
X0047450Y0071698D01*
X0045898Y0073250D01*
X0043702Y0073250D01*
X0042552Y0072100D01*
X0038779Y0072100D01*
X0037900Y0071221D01*
X0031300Y0064621D01*
X0031300Y0055021D01*
X0030379Y0054100D01*
X0027979Y0054100D01*
X0027100Y0053221D01*
X0026500Y0052621D01*
X0026500Y0050221D01*
X0023129Y0046850D01*
X0021502Y0046850D01*
X0019950Y0045298D01*
X0019950Y0043102D01*
X0021502Y0041550D01*
X0023698Y0041550D01*
X0025250Y0043102D01*
X0025250Y0044729D01*
X0025900Y0045379D01*
X0025900Y0033030D01*
X0023830Y0035100D01*
X0019770Y0035100D01*
X0017083Y0032412D01*
X0013995Y0035500D01*
X0012200Y0035500D01*
X0012200Y0030600D01*
X0011400Y0030600D01*
X0011400Y0035500D01*
X0009605Y0035500D01*
X0006500Y0032395D01*
X0006500Y0030600D01*
X0011400Y0030600D01*
X0011400Y0029800D01*
X0006500Y0029800D01*
X0006500Y0028005D01*
X0009588Y0024917D01*
X0006900Y0022230D01*
X0006900Y0018170D01*
X0009770Y0015300D01*
X0013830Y0015300D01*
X0014204Y0015675D01*
X0015100Y0014779D01*
X0015979Y0013900D01*
X0016900Y0013900D01*
X0016900Y0006003D01*
X0017403Y0005500D01*
X0014030Y0005500D01*
X0016700Y0008170D01*
X0016700Y0012230D01*
X0013830Y0015100D01*
X0009770Y0015100D01*
X0006900Y0012230D01*
X0006900Y0008170D01*
X0009570Y0005500D01*
X0005500Y0005500D01*
X0005500Y0005797D02*
X0009273Y0005797D01*
X0008075Y0006996D02*
X0005500Y0006996D01*
X0005500Y0008194D02*
X0006900Y0008194D01*
X0006900Y0009393D02*
X0005500Y0009393D01*
X0005500Y0010591D02*
X0006900Y0010591D01*
X0006900Y0011790D02*
X0005500Y0011790D01*
X0005500Y0012988D02*
X0007658Y0012988D01*
X0008857Y0014187D02*
X0005500Y0014187D01*
X0005500Y0015385D02*
X0009685Y0015385D01*
X0008487Y0016584D02*
X0005500Y0016584D01*
X0005500Y0017782D02*
X0007288Y0017782D01*
X0006900Y0018981D02*
X0005500Y0018981D01*
X0005500Y0020179D02*
X0006900Y0020179D01*
X0006900Y0021378D02*
X0005500Y0021378D01*
X0005500Y0022576D02*
X0007247Y0022576D01*
X0008445Y0023775D02*
X0005500Y0023775D01*
X0005500Y0024973D02*
X0009531Y0024973D01*
X0008333Y0026172D02*
X0005500Y0026172D01*
X0005500Y0027370D02*
X0007134Y0027370D01*
X0006500Y0028569D02*
X0005500Y0028569D01*
X0005500Y0029767D02*
X0006500Y0029767D01*
X0006500Y0030966D02*
X0005500Y0030966D01*
X0005500Y0032164D02*
X0006500Y0032164D01*
X0007467Y0033363D02*
X0005500Y0033363D01*
X0005500Y0034561D02*
X0008666Y0034561D01*
X0011400Y0034561D02*
X0012200Y0034561D01*
X0012200Y0033363D02*
X0011400Y0033363D01*
X0011400Y0032164D02*
X0012200Y0032164D01*
X0012200Y0030966D02*
X0011400Y0030966D01*
X0014934Y0034561D02*
X0019232Y0034561D01*
X0018033Y0033363D02*
X0016133Y0033363D01*
X0024368Y0034561D02*
X0025900Y0034561D01*
X0025900Y0033363D02*
X0025567Y0033363D01*
X0025900Y0035760D02*
X0005500Y0035760D01*
X0005500Y0036958D02*
X0025900Y0036958D01*
X0025900Y0038157D02*
X0005500Y0038157D01*
X0005500Y0039355D02*
X0025900Y0039355D01*
X0025900Y0040554D02*
X0005500Y0040554D01*
X0005500Y0041752D02*
X0021300Y0041752D01*
X0020101Y0042951D02*
X0005500Y0042951D01*
X0005500Y0044149D02*
X0019950Y0044149D01*
X0020000Y0045348D02*
X0019021Y0045348D01*
X0020219Y0046546D02*
X0021199Y0046546D01*
X0021173Y0047500D02*
X0021173Y0047500D01*
X0021418Y0047745D02*
X0024024Y0047745D01*
X0025222Y0048943D02*
X0021700Y0048943D01*
X0021700Y0050142D02*
X0026421Y0050142D01*
X0026500Y0051340D02*
X0021700Y0051340D01*
X0021700Y0052539D02*
X0026500Y0052539D01*
X0027616Y0053737D02*
X0021700Y0053737D01*
X0021537Y0054936D02*
X0031215Y0054936D01*
X0031300Y0056134D02*
X0021407Y0056134D01*
X0021173Y0055900D02*
X0021700Y0056427D01*
X0021700Y0063173D01*
X0021173Y0063700D01*
X0021100Y0063773D01*
X0021100Y0064227D01*
X0022373Y0065500D01*
X0025973Y0065500D01*
X0027773Y0067300D01*
X0028300Y0067827D01*
X0028300Y0073973D01*
X0025373Y0076900D01*
X0024627Y0076900D01*
X0024100Y0076373D01*
X0024100Y0075627D01*
X0026500Y0073227D01*
X0026500Y0068573D01*
X0025227Y0067300D01*
X0021627Y0067300D01*
X0021100Y0066773D01*
X0019827Y0065500D01*
X0019300Y0064973D01*
X0019300Y0063027D01*
X0019900Y0062427D01*
X0019900Y0056427D01*
X0020427Y0055900D01*
X0021173Y0055900D01*
X0020193Y0056134D02*
X0005500Y0056134D01*
X0005500Y0054936D02*
X0020063Y0054936D01*
X0019900Y0053737D02*
X0005500Y0053737D01*
X0005500Y0052539D02*
X0019900Y0052539D01*
X0019900Y0051340D02*
X0005500Y0051340D01*
X0005500Y0050142D02*
X0019900Y0050142D01*
X0019900Y0048943D02*
X0005500Y0048943D01*
X0005500Y0047745D02*
X0018872Y0047745D01*
X0017674Y0046546D02*
X0005500Y0046546D01*
X0005500Y0057333D02*
X0019900Y0057333D01*
X0019900Y0058532D02*
X0005500Y0058532D01*
X0005500Y0059730D02*
X0019900Y0059730D01*
X0019900Y0060929D02*
X0005500Y0060929D01*
X0005500Y0062127D02*
X0019900Y0062127D01*
X0019300Y0063326D02*
X0005500Y0063326D01*
X0005500Y0064524D02*
X0019300Y0064524D01*
X0019827Y0065500D02*
X0019827Y0065500D01*
X0020050Y0065723D02*
X0005500Y0065723D01*
X0005500Y0066921D02*
X0021248Y0066921D01*
X0021397Y0064524D02*
X0031300Y0064524D01*
X0031300Y0063326D02*
X0021547Y0063326D01*
X0021700Y0062127D02*
X0031300Y0062127D01*
X0031300Y0060929D02*
X0021700Y0060929D01*
X0021700Y0059730D02*
X0031300Y0059730D01*
X0031300Y0058532D02*
X0021700Y0058532D01*
X0021700Y0057333D02*
X0031300Y0057333D01*
X0034300Y0057333D02*
X0101300Y0057333D01*
X0101300Y0056134D02*
X0034300Y0056134D01*
X0034300Y0054936D02*
X0101300Y0054936D01*
X0101300Y0053737D02*
X0034259Y0053737D01*
X0033060Y0052539D02*
X0101300Y0052539D01*
X0101300Y0051340D02*
X0033007Y0051340D01*
X0032500Y0051979D02*
X0032500Y0051979D01*
X0033050Y0050142D02*
X0101300Y0050142D01*
X0101300Y0048943D02*
X0032891Y0048943D01*
X0034203Y0047745D02*
X0101300Y0047745D01*
X0101300Y0046546D02*
X0034850Y0046546D01*
X0034850Y0045348D02*
X0101300Y0045348D01*
X0101300Y0044149D02*
X0035398Y0044149D01*
X0036597Y0042951D02*
X0101300Y0042951D01*
X0101300Y0041752D02*
X0036650Y0041752D01*
X0036502Y0040554D02*
X0101300Y0040554D01*
X0101300Y0039355D02*
X0035303Y0039355D01*
X0032697Y0039355D02*
X0031300Y0039355D01*
X0031300Y0038157D02*
X0101300Y0038157D01*
X0101300Y0036958D02*
X0031300Y0036958D01*
X0031300Y0035760D02*
X0101300Y0035760D01*
X0101300Y0034561D02*
X0031300Y0034561D01*
X0031300Y0033363D02*
X0101300Y0033363D01*
X0101300Y0032164D02*
X0031300Y0032164D01*
X0031300Y0030966D02*
X0101300Y0030966D01*
X0101300Y0029767D02*
X0031300Y0029767D01*
X0031300Y0028569D02*
X0101300Y0028569D01*
X0101300Y0027370D02*
X0031300Y0027370D01*
X0031300Y0026172D02*
X0101300Y0026172D01*
X0101300Y0024973D02*
X0031300Y0024973D01*
X0031300Y0023775D02*
X0101300Y0023775D01*
X0101300Y0022576D02*
X0031300Y0022576D01*
X0031300Y0021378D02*
X0050712Y0021378D01*
X0048301Y0020179D02*
X0031300Y0020179D01*
X0031300Y0018981D02*
X0047102Y0018981D01*
X0046124Y0017782D02*
X0031300Y0017782D01*
X0030305Y0016584D02*
X0045627Y0016584D01*
X0045131Y0015385D02*
X0029106Y0015385D01*
X0027908Y0014187D02*
X0045001Y0014187D01*
X0045001Y0012988D02*
X0026709Y0012988D01*
X0026700Y0011790D02*
X0045001Y0011790D01*
X0045472Y0010591D02*
X0026700Y0010591D01*
X0026700Y0009393D02*
X0045969Y0009393D01*
X0046728Y0008194D02*
X0026700Y0008194D01*
X0026700Y0006996D02*
X0047926Y0006996D01*
X0049807Y0005797D02*
X0026494Y0005797D01*
X0017106Y0005797D02*
X0014327Y0005797D01*
X0015525Y0006996D02*
X0016900Y0006996D01*
X0016900Y0008194D02*
X0016700Y0008194D01*
X0016700Y0009393D02*
X0016900Y0009393D01*
X0016900Y0010591D02*
X0016700Y0010591D01*
X0016700Y0011790D02*
X0016900Y0011790D01*
X0016900Y0012988D02*
X0015942Y0012988D01*
X0015692Y0014187D02*
X0014743Y0014187D01*
X0014494Y0015385D02*
X0013915Y0015385D01*
X0023900Y0041752D02*
X0025900Y0041752D01*
X0025900Y0042951D02*
X0025099Y0042951D01*
X0025250Y0044149D02*
X0025900Y0044149D01*
X0025869Y0045348D02*
X0025900Y0045348D01*
X0034300Y0058532D02*
X0101300Y0058532D01*
X0101300Y0059730D02*
X0034300Y0059730D01*
X0034300Y0060929D02*
X0101300Y0060929D01*
X0101300Y0062127D02*
X0034300Y0062127D01*
X0034300Y0063326D02*
X0101300Y0063326D01*
X0101300Y0064524D02*
X0035445Y0064524D01*
X0036644Y0065723D02*
X0101300Y0065723D01*
X0101300Y0066921D02*
X0037842Y0066921D01*
X0039041Y0068120D02*
X0043533Y0068120D01*
X0046067Y0068120D02*
X0050808Y0068120D01*
X0051027Y0067900D02*
X0050500Y0068427D01*
X0049300Y0069627D01*
X0049300Y0071427D01*
X0045027Y0075700D01*
X0041573Y0075700D01*
X0036173Y0070300D01*
X0028827Y0070300D01*
X0028300Y0070827D01*
X0028300Y0071573D01*
X0028827Y0072100D01*
X0035427Y0072100D01*
X0040300Y0076973D01*
X0040827Y0077500D01*
X0045773Y0077500D01*
X0050573Y0072700D01*
X0051100Y0072173D01*
X0051100Y0070373D01*
X0051773Y0069700D01*
X0065573Y0069700D01*
X0066700Y0068573D01*
X0066700Y0067827D01*
X0066173Y0067300D01*
X0065427Y0067300D01*
X0064827Y0067900D01*
X0051027Y0067900D01*
X0049609Y0069318D02*
X0047266Y0069318D01*
X0047450Y0070517D02*
X0049300Y0070517D01*
X0049012Y0071715D02*
X0047432Y0071715D01*
X0047814Y0072914D02*
X0046234Y0072914D01*
X0046615Y0074112D02*
X0039985Y0074112D01*
X0038786Y0072914D02*
X0043366Y0072914D01*
X0045417Y0075311D02*
X0041183Y0075311D01*
X0039836Y0076509D02*
X0025764Y0076509D01*
X0026962Y0075311D02*
X0038638Y0075311D01*
X0037439Y0074112D02*
X0028161Y0074112D01*
X0028300Y0072914D02*
X0036241Y0072914D01*
X0037588Y0071715D02*
X0038394Y0071715D01*
X0037195Y0070517D02*
X0036389Y0070517D01*
X0035997Y0069318D02*
X0028300Y0069318D01*
X0028300Y0068120D02*
X0034798Y0068120D01*
X0033600Y0066921D02*
X0027394Y0066921D01*
X0027773Y0067300D02*
X0027773Y0067300D01*
X0026047Y0068120D02*
X0005500Y0068120D01*
X0005500Y0069318D02*
X0026500Y0069318D01*
X0026500Y0070517D02*
X0005500Y0070517D01*
X0005500Y0071715D02*
X0026500Y0071715D01*
X0026500Y0072914D02*
X0005500Y0072914D01*
X0005500Y0074112D02*
X0025615Y0074112D01*
X0024417Y0075311D02*
X0005500Y0075311D01*
X0005500Y0076509D02*
X0024236Y0076509D01*
X0024100Y0077708D02*
X0101300Y0077708D01*
X0101300Y0078906D02*
X0023367Y0078906D01*
X0022020Y0077708D02*
X0005500Y0077708D01*
X0005500Y0078906D02*
X0021100Y0078906D01*
X0020822Y0080105D02*
X0005500Y0080105D01*
X0005500Y0081303D02*
X0019624Y0081303D01*
X0018425Y0082502D02*
X0005500Y0082502D01*
X0005500Y0083700D02*
X0017227Y0083700D01*
X0018700Y0084899D02*
X0060867Y0084899D01*
X0060867Y0084230D02*
X0061456Y0082807D01*
X0062545Y0081718D01*
X0063968Y0081128D01*
X0065509Y0081128D01*
X0066932Y0081718D01*
X0068021Y0082807D01*
X0068610Y0084230D01*
X0068610Y0085770D01*
X0068021Y0087193D01*
X0066932Y0088282D01*
X0065509Y0088872D01*
X0063968Y0088872D01*
X0062545Y0088282D01*
X0061456Y0087193D01*
X0060867Y0085770D01*
X0060867Y0084230D01*
X0061086Y0083700D02*
X0019773Y0083700D01*
X0020971Y0082502D02*
X0061761Y0082502D01*
X0063546Y0081303D02*
X0022170Y0081303D01*
X0022900Y0080105D02*
X0101300Y0080105D01*
X0101300Y0081303D02*
X0083254Y0081303D01*
X0082832Y0081128D02*
X0084255Y0081718D01*
X0085344Y0082807D01*
X0085933Y0084230D01*
X0085933Y0085770D01*
X0085344Y0087193D01*
X0084255Y0088282D01*
X0082832Y0088872D01*
X0081291Y0088872D01*
X0079868Y0088282D01*
X0078779Y0087193D01*
X0078190Y0085770D01*
X0078190Y0084230D01*
X0078779Y0082807D01*
X0079868Y0081718D01*
X0081291Y0081128D01*
X0082832Y0081128D01*
X0080869Y0081303D02*
X0065931Y0081303D01*
X0067716Y0082502D02*
X0079084Y0082502D01*
X0078409Y0083700D02*
X0068391Y0083700D01*
X0068610Y0084899D02*
X0078190Y0084899D01*
X0078325Y0086097D02*
X0068475Y0086097D01*
X0067918Y0087296D02*
X0078882Y0087296D01*
X0080380Y0088494D02*
X0066420Y0088494D01*
X0063057Y0088494D02*
X0020373Y0088494D01*
X0020956Y0089693D02*
X0101300Y0089693D01*
X0101300Y0090891D02*
X0021978Y0090891D01*
X0022300Y0092090D02*
X0101300Y0092090D01*
X0101300Y0093288D02*
X0022300Y0093288D01*
X0022300Y0094487D02*
X0101300Y0094487D01*
X0101300Y0095685D02*
X0068233Y0095685D01*
X0068098Y0095550D02*
X0069650Y0097102D01*
X0069650Y0099298D01*
X0068098Y0100850D01*
X0065902Y0100850D01*
X0065452Y0100400D01*
X0048148Y0100400D01*
X0047698Y0100850D01*
X0045502Y0100850D01*
X0043950Y0099298D01*
X0043950Y0097102D01*
X0045502Y0095550D01*
X0047698Y0095550D01*
X0048148Y0096000D01*
X0065452Y0096000D01*
X0065902Y0095550D01*
X0068098Y0095550D01*
X0069432Y0096884D02*
X0101300Y0096884D01*
X0101300Y0098082D02*
X0069650Y0098082D01*
X0069650Y0099281D02*
X0101300Y0099281D01*
X0101300Y0100479D02*
X0068468Y0100479D01*
X0065532Y0100479D02*
X0048068Y0100479D01*
X0045132Y0100479D02*
X0022300Y0100479D01*
X0022300Y0099281D02*
X0043950Y0099281D01*
X0043950Y0098082D02*
X0022300Y0098082D01*
X0022300Y0096884D02*
X0044168Y0096884D01*
X0045367Y0095685D02*
X0022300Y0095685D01*
X0019174Y0087296D02*
X0061559Y0087296D01*
X0061002Y0086097D02*
X0018700Y0086097D01*
X0028300Y0071715D02*
X0028442Y0071715D01*
X0028300Y0070517D02*
X0028611Y0070517D01*
X0026195Y0065723D02*
X0032401Y0065723D01*
X0046764Y0076509D02*
X0101300Y0076509D01*
X0101300Y0075311D02*
X0047962Y0075311D01*
X0049161Y0074112D02*
X0101300Y0074112D01*
X0101300Y0072914D02*
X0050359Y0072914D01*
X0051100Y0071715D02*
X0101300Y0071715D01*
X0101300Y0070517D02*
X0051100Y0070517D01*
X0065955Y0069318D02*
X0068045Y0069318D01*
X0067300Y0068120D02*
X0066700Y0068120D01*
X0069392Y0068120D02*
X0101300Y0068120D01*
X0101300Y0082502D02*
X0085039Y0082502D01*
X0085714Y0083700D02*
X0101300Y0083700D01*
X0101300Y0084899D02*
X0085933Y0084899D01*
X0085798Y0086097D02*
X0101300Y0086097D01*
X0101300Y0087296D02*
X0085241Y0087296D01*
X0083743Y0088494D02*
X0101300Y0088494D01*
X0065767Y0095685D02*
X0047833Y0095685D01*
X0079000Y0043600D02*
X0080800Y0041800D01*
X0080800Y0041200D01*
X0090712Y0021378D02*
X0056088Y0021378D01*
X0058499Y0020179D02*
X0088301Y0020179D01*
X0087102Y0018981D02*
X0059698Y0018981D01*
X0060676Y0017782D02*
X0086124Y0017782D01*
X0085627Y0016584D02*
X0061173Y0016584D01*
X0061669Y0015385D02*
X0085131Y0015385D01*
X0085001Y0014187D02*
X0061799Y0014187D01*
X0061799Y0012988D02*
X0085001Y0012988D01*
X0085001Y0011790D02*
X0061799Y0011790D01*
X0061328Y0010591D02*
X0085472Y0010591D01*
X0085969Y0009393D02*
X0060831Y0009393D01*
X0060072Y0008194D02*
X0086728Y0008194D01*
X0087926Y0006996D02*
X0058874Y0006996D01*
X0056993Y0005797D02*
X0089807Y0005797D01*
X0101173Y0016584D02*
X0101300Y0016584D01*
X0101300Y0017782D02*
X0100676Y0017782D01*
X0101300Y0018981D02*
X0099698Y0018981D01*
X0098499Y0020179D02*
X0101300Y0020179D01*
X0101300Y0021378D02*
X0096088Y0021378D01*
D13*
X0080800Y0041200D03*
X0044800Y0070600D03*
X0030400Y0050200D03*
X0032200Y0046000D03*
X0034000Y0041800D03*
X0022600Y0044200D03*
X0022600Y0050200D03*
X0007000Y0041800D03*
X0021400Y0086200D03*
X0046600Y0098200D03*
X0067000Y0098200D03*
D14*
X0044800Y0070600D02*
X0039400Y0070600D01*
X0032800Y0064000D01*
X0032800Y0054400D01*
X0031000Y0052600D01*
X0028600Y0052600D01*
X0028000Y0052000D01*
X0028000Y0049600D01*
X0022600Y0044200D01*
X0027400Y0047200D02*
X0030400Y0050200D01*
X0027400Y0047200D02*
X0027400Y0027400D01*
X0021800Y0021800D01*
X0021800Y0020200D01*
X0025000Y0015400D02*
X0028600Y0019000D01*
X0028600Y0044800D01*
X0029800Y0046000D01*
X0032200Y0046000D01*
X0030400Y0041800D02*
X0034000Y0041800D01*
X0030400Y0041800D02*
X0029800Y0041200D01*
X0029800Y0018200D01*
X0021800Y0010200D01*
X0025000Y0015400D02*
X0016600Y0015400D01*
X0011800Y0020200D01*
X0007000Y0040000D02*
X0007000Y0041800D01*
X0022600Y0050200D02*
X0023800Y0050200D01*
X0021400Y0085000D02*
X0021400Y0086200D01*
D15*
X0067000Y0065800D03*
D16*
X0067000Y0062800D01*
D17*
X0067000Y0098200D02*
X0046600Y0098200D01*
M02*
