G75*
%MOIN*%
%OFA0B0*%
%FSLAX25Y25*%
%IPPOS*%
%LPD*%
%AMOC8*
5,1,8,0,0,1.08239X$1,22.5*
%
%ADD10C,0.00000*%
%ADD11C,0.00200*%
D10*
X0003400Y0003400D02*
X0003400Y0103400D01*
X0103400Y0103400D01*
X0103400Y0003400D01*
X0003400Y0003400D01*
X0047101Y0013400D02*
X0047103Y0013558D01*
X0047109Y0013716D01*
X0047119Y0013874D01*
X0047133Y0014032D01*
X0047151Y0014189D01*
X0047172Y0014346D01*
X0047198Y0014502D01*
X0047228Y0014658D01*
X0047261Y0014813D01*
X0047299Y0014966D01*
X0047340Y0015119D01*
X0047385Y0015271D01*
X0047434Y0015422D01*
X0047487Y0015571D01*
X0047543Y0015719D01*
X0047603Y0015865D01*
X0047667Y0016010D01*
X0047735Y0016153D01*
X0047806Y0016295D01*
X0047880Y0016435D01*
X0047958Y0016572D01*
X0048040Y0016708D01*
X0048124Y0016842D01*
X0048213Y0016973D01*
X0048304Y0017102D01*
X0048399Y0017229D01*
X0048496Y0017354D01*
X0048597Y0017476D01*
X0048701Y0017595D01*
X0048808Y0017712D01*
X0048918Y0017826D01*
X0049031Y0017937D01*
X0049146Y0018046D01*
X0049264Y0018151D01*
X0049385Y0018253D01*
X0049508Y0018353D01*
X0049634Y0018449D01*
X0049762Y0018542D01*
X0049892Y0018632D01*
X0050025Y0018718D01*
X0050160Y0018802D01*
X0050296Y0018881D01*
X0050435Y0018958D01*
X0050576Y0019030D01*
X0050718Y0019100D01*
X0050862Y0019165D01*
X0051008Y0019227D01*
X0051155Y0019285D01*
X0051304Y0019340D01*
X0051454Y0019391D01*
X0051605Y0019438D01*
X0051757Y0019481D01*
X0051910Y0019520D01*
X0052065Y0019556D01*
X0052220Y0019587D01*
X0052376Y0019615D01*
X0052532Y0019639D01*
X0052689Y0019659D01*
X0052847Y0019675D01*
X0053004Y0019687D01*
X0053163Y0019695D01*
X0053321Y0019699D01*
X0053479Y0019699D01*
X0053637Y0019695D01*
X0053796Y0019687D01*
X0053953Y0019675D01*
X0054111Y0019659D01*
X0054268Y0019639D01*
X0054424Y0019615D01*
X0054580Y0019587D01*
X0054735Y0019556D01*
X0054890Y0019520D01*
X0055043Y0019481D01*
X0055195Y0019438D01*
X0055346Y0019391D01*
X0055496Y0019340D01*
X0055645Y0019285D01*
X0055792Y0019227D01*
X0055938Y0019165D01*
X0056082Y0019100D01*
X0056224Y0019030D01*
X0056365Y0018958D01*
X0056504Y0018881D01*
X0056640Y0018802D01*
X0056775Y0018718D01*
X0056908Y0018632D01*
X0057038Y0018542D01*
X0057166Y0018449D01*
X0057292Y0018353D01*
X0057415Y0018253D01*
X0057536Y0018151D01*
X0057654Y0018046D01*
X0057769Y0017937D01*
X0057882Y0017826D01*
X0057992Y0017712D01*
X0058099Y0017595D01*
X0058203Y0017476D01*
X0058304Y0017354D01*
X0058401Y0017229D01*
X0058496Y0017102D01*
X0058587Y0016973D01*
X0058676Y0016842D01*
X0058760Y0016708D01*
X0058842Y0016572D01*
X0058920Y0016435D01*
X0058994Y0016295D01*
X0059065Y0016153D01*
X0059133Y0016010D01*
X0059197Y0015865D01*
X0059257Y0015719D01*
X0059313Y0015571D01*
X0059366Y0015422D01*
X0059415Y0015271D01*
X0059460Y0015119D01*
X0059501Y0014966D01*
X0059539Y0014813D01*
X0059572Y0014658D01*
X0059602Y0014502D01*
X0059628Y0014346D01*
X0059649Y0014189D01*
X0059667Y0014032D01*
X0059681Y0013874D01*
X0059691Y0013716D01*
X0059697Y0013558D01*
X0059699Y0013400D01*
X0059697Y0013242D01*
X0059691Y0013084D01*
X0059681Y0012926D01*
X0059667Y0012768D01*
X0059649Y0012611D01*
X0059628Y0012454D01*
X0059602Y0012298D01*
X0059572Y0012142D01*
X0059539Y0011987D01*
X0059501Y0011834D01*
X0059460Y0011681D01*
X0059415Y0011529D01*
X0059366Y0011378D01*
X0059313Y0011229D01*
X0059257Y0011081D01*
X0059197Y0010935D01*
X0059133Y0010790D01*
X0059065Y0010647D01*
X0058994Y0010505D01*
X0058920Y0010365D01*
X0058842Y0010228D01*
X0058760Y0010092D01*
X0058676Y0009958D01*
X0058587Y0009827D01*
X0058496Y0009698D01*
X0058401Y0009571D01*
X0058304Y0009446D01*
X0058203Y0009324D01*
X0058099Y0009205D01*
X0057992Y0009088D01*
X0057882Y0008974D01*
X0057769Y0008863D01*
X0057654Y0008754D01*
X0057536Y0008649D01*
X0057415Y0008547D01*
X0057292Y0008447D01*
X0057166Y0008351D01*
X0057038Y0008258D01*
X0056908Y0008168D01*
X0056775Y0008082D01*
X0056640Y0007998D01*
X0056504Y0007919D01*
X0056365Y0007842D01*
X0056224Y0007770D01*
X0056082Y0007700D01*
X0055938Y0007635D01*
X0055792Y0007573D01*
X0055645Y0007515D01*
X0055496Y0007460D01*
X0055346Y0007409D01*
X0055195Y0007362D01*
X0055043Y0007319D01*
X0054890Y0007280D01*
X0054735Y0007244D01*
X0054580Y0007213D01*
X0054424Y0007185D01*
X0054268Y0007161D01*
X0054111Y0007141D01*
X0053953Y0007125D01*
X0053796Y0007113D01*
X0053637Y0007105D01*
X0053479Y0007101D01*
X0053321Y0007101D01*
X0053163Y0007105D01*
X0053004Y0007113D01*
X0052847Y0007125D01*
X0052689Y0007141D01*
X0052532Y0007161D01*
X0052376Y0007185D01*
X0052220Y0007213D01*
X0052065Y0007244D01*
X0051910Y0007280D01*
X0051757Y0007319D01*
X0051605Y0007362D01*
X0051454Y0007409D01*
X0051304Y0007460D01*
X0051155Y0007515D01*
X0051008Y0007573D01*
X0050862Y0007635D01*
X0050718Y0007700D01*
X0050576Y0007770D01*
X0050435Y0007842D01*
X0050296Y0007919D01*
X0050160Y0007998D01*
X0050025Y0008082D01*
X0049892Y0008168D01*
X0049762Y0008258D01*
X0049634Y0008351D01*
X0049508Y0008447D01*
X0049385Y0008547D01*
X0049264Y0008649D01*
X0049146Y0008754D01*
X0049031Y0008863D01*
X0048918Y0008974D01*
X0048808Y0009088D01*
X0048701Y0009205D01*
X0048597Y0009324D01*
X0048496Y0009446D01*
X0048399Y0009571D01*
X0048304Y0009698D01*
X0048213Y0009827D01*
X0048124Y0009958D01*
X0048040Y0010092D01*
X0047958Y0010228D01*
X0047880Y0010365D01*
X0047806Y0010505D01*
X0047735Y0010647D01*
X0047667Y0010790D01*
X0047603Y0010935D01*
X0047543Y0011081D01*
X0047487Y0011229D01*
X0047434Y0011378D01*
X0047385Y0011529D01*
X0047340Y0011681D01*
X0047299Y0011834D01*
X0047261Y0011987D01*
X0047228Y0012142D01*
X0047198Y0012298D01*
X0047172Y0012454D01*
X0047151Y0012611D01*
X0047133Y0012768D01*
X0047119Y0012926D01*
X0047109Y0013084D01*
X0047103Y0013242D01*
X0047101Y0013400D01*
X0087101Y0013400D02*
X0087103Y0013558D01*
X0087109Y0013716D01*
X0087119Y0013874D01*
X0087133Y0014032D01*
X0087151Y0014189D01*
X0087172Y0014346D01*
X0087198Y0014502D01*
X0087228Y0014658D01*
X0087261Y0014813D01*
X0087299Y0014966D01*
X0087340Y0015119D01*
X0087385Y0015271D01*
X0087434Y0015422D01*
X0087487Y0015571D01*
X0087543Y0015719D01*
X0087603Y0015865D01*
X0087667Y0016010D01*
X0087735Y0016153D01*
X0087806Y0016295D01*
X0087880Y0016435D01*
X0087958Y0016572D01*
X0088040Y0016708D01*
X0088124Y0016842D01*
X0088213Y0016973D01*
X0088304Y0017102D01*
X0088399Y0017229D01*
X0088496Y0017354D01*
X0088597Y0017476D01*
X0088701Y0017595D01*
X0088808Y0017712D01*
X0088918Y0017826D01*
X0089031Y0017937D01*
X0089146Y0018046D01*
X0089264Y0018151D01*
X0089385Y0018253D01*
X0089508Y0018353D01*
X0089634Y0018449D01*
X0089762Y0018542D01*
X0089892Y0018632D01*
X0090025Y0018718D01*
X0090160Y0018802D01*
X0090296Y0018881D01*
X0090435Y0018958D01*
X0090576Y0019030D01*
X0090718Y0019100D01*
X0090862Y0019165D01*
X0091008Y0019227D01*
X0091155Y0019285D01*
X0091304Y0019340D01*
X0091454Y0019391D01*
X0091605Y0019438D01*
X0091757Y0019481D01*
X0091910Y0019520D01*
X0092065Y0019556D01*
X0092220Y0019587D01*
X0092376Y0019615D01*
X0092532Y0019639D01*
X0092689Y0019659D01*
X0092847Y0019675D01*
X0093004Y0019687D01*
X0093163Y0019695D01*
X0093321Y0019699D01*
X0093479Y0019699D01*
X0093637Y0019695D01*
X0093796Y0019687D01*
X0093953Y0019675D01*
X0094111Y0019659D01*
X0094268Y0019639D01*
X0094424Y0019615D01*
X0094580Y0019587D01*
X0094735Y0019556D01*
X0094890Y0019520D01*
X0095043Y0019481D01*
X0095195Y0019438D01*
X0095346Y0019391D01*
X0095496Y0019340D01*
X0095645Y0019285D01*
X0095792Y0019227D01*
X0095938Y0019165D01*
X0096082Y0019100D01*
X0096224Y0019030D01*
X0096365Y0018958D01*
X0096504Y0018881D01*
X0096640Y0018802D01*
X0096775Y0018718D01*
X0096908Y0018632D01*
X0097038Y0018542D01*
X0097166Y0018449D01*
X0097292Y0018353D01*
X0097415Y0018253D01*
X0097536Y0018151D01*
X0097654Y0018046D01*
X0097769Y0017937D01*
X0097882Y0017826D01*
X0097992Y0017712D01*
X0098099Y0017595D01*
X0098203Y0017476D01*
X0098304Y0017354D01*
X0098401Y0017229D01*
X0098496Y0017102D01*
X0098587Y0016973D01*
X0098676Y0016842D01*
X0098760Y0016708D01*
X0098842Y0016572D01*
X0098920Y0016435D01*
X0098994Y0016295D01*
X0099065Y0016153D01*
X0099133Y0016010D01*
X0099197Y0015865D01*
X0099257Y0015719D01*
X0099313Y0015571D01*
X0099366Y0015422D01*
X0099415Y0015271D01*
X0099460Y0015119D01*
X0099501Y0014966D01*
X0099539Y0014813D01*
X0099572Y0014658D01*
X0099602Y0014502D01*
X0099628Y0014346D01*
X0099649Y0014189D01*
X0099667Y0014032D01*
X0099681Y0013874D01*
X0099691Y0013716D01*
X0099697Y0013558D01*
X0099699Y0013400D01*
X0099697Y0013242D01*
X0099691Y0013084D01*
X0099681Y0012926D01*
X0099667Y0012768D01*
X0099649Y0012611D01*
X0099628Y0012454D01*
X0099602Y0012298D01*
X0099572Y0012142D01*
X0099539Y0011987D01*
X0099501Y0011834D01*
X0099460Y0011681D01*
X0099415Y0011529D01*
X0099366Y0011378D01*
X0099313Y0011229D01*
X0099257Y0011081D01*
X0099197Y0010935D01*
X0099133Y0010790D01*
X0099065Y0010647D01*
X0098994Y0010505D01*
X0098920Y0010365D01*
X0098842Y0010228D01*
X0098760Y0010092D01*
X0098676Y0009958D01*
X0098587Y0009827D01*
X0098496Y0009698D01*
X0098401Y0009571D01*
X0098304Y0009446D01*
X0098203Y0009324D01*
X0098099Y0009205D01*
X0097992Y0009088D01*
X0097882Y0008974D01*
X0097769Y0008863D01*
X0097654Y0008754D01*
X0097536Y0008649D01*
X0097415Y0008547D01*
X0097292Y0008447D01*
X0097166Y0008351D01*
X0097038Y0008258D01*
X0096908Y0008168D01*
X0096775Y0008082D01*
X0096640Y0007998D01*
X0096504Y0007919D01*
X0096365Y0007842D01*
X0096224Y0007770D01*
X0096082Y0007700D01*
X0095938Y0007635D01*
X0095792Y0007573D01*
X0095645Y0007515D01*
X0095496Y0007460D01*
X0095346Y0007409D01*
X0095195Y0007362D01*
X0095043Y0007319D01*
X0094890Y0007280D01*
X0094735Y0007244D01*
X0094580Y0007213D01*
X0094424Y0007185D01*
X0094268Y0007161D01*
X0094111Y0007141D01*
X0093953Y0007125D01*
X0093796Y0007113D01*
X0093637Y0007105D01*
X0093479Y0007101D01*
X0093321Y0007101D01*
X0093163Y0007105D01*
X0093004Y0007113D01*
X0092847Y0007125D01*
X0092689Y0007141D01*
X0092532Y0007161D01*
X0092376Y0007185D01*
X0092220Y0007213D01*
X0092065Y0007244D01*
X0091910Y0007280D01*
X0091757Y0007319D01*
X0091605Y0007362D01*
X0091454Y0007409D01*
X0091304Y0007460D01*
X0091155Y0007515D01*
X0091008Y0007573D01*
X0090862Y0007635D01*
X0090718Y0007700D01*
X0090576Y0007770D01*
X0090435Y0007842D01*
X0090296Y0007919D01*
X0090160Y0007998D01*
X0090025Y0008082D01*
X0089892Y0008168D01*
X0089762Y0008258D01*
X0089634Y0008351D01*
X0089508Y0008447D01*
X0089385Y0008547D01*
X0089264Y0008649D01*
X0089146Y0008754D01*
X0089031Y0008863D01*
X0088918Y0008974D01*
X0088808Y0009088D01*
X0088701Y0009205D01*
X0088597Y0009324D01*
X0088496Y0009446D01*
X0088399Y0009571D01*
X0088304Y0009698D01*
X0088213Y0009827D01*
X0088124Y0009958D01*
X0088040Y0010092D01*
X0087958Y0010228D01*
X0087880Y0010365D01*
X0087806Y0010505D01*
X0087735Y0010647D01*
X0087667Y0010790D01*
X0087603Y0010935D01*
X0087543Y0011081D01*
X0087487Y0011229D01*
X0087434Y0011378D01*
X0087385Y0011529D01*
X0087340Y0011681D01*
X0087299Y0011834D01*
X0087261Y0011987D01*
X0087228Y0012142D01*
X0087198Y0012298D01*
X0087172Y0012454D01*
X0087151Y0012611D01*
X0087133Y0012768D01*
X0087119Y0012926D01*
X0087109Y0013084D01*
X0087103Y0013242D01*
X0087101Y0013400D01*
X0080289Y0085000D02*
X0080291Y0085084D01*
X0080297Y0085167D01*
X0080307Y0085250D01*
X0080321Y0085333D01*
X0080338Y0085415D01*
X0080360Y0085496D01*
X0080385Y0085575D01*
X0080414Y0085654D01*
X0080447Y0085731D01*
X0080483Y0085806D01*
X0080523Y0085880D01*
X0080566Y0085952D01*
X0080613Y0086021D01*
X0080663Y0086088D01*
X0080716Y0086153D01*
X0080772Y0086215D01*
X0080830Y0086275D01*
X0080892Y0086332D01*
X0080956Y0086385D01*
X0081023Y0086436D01*
X0081092Y0086483D01*
X0081163Y0086528D01*
X0081236Y0086568D01*
X0081311Y0086605D01*
X0081388Y0086639D01*
X0081466Y0086669D01*
X0081545Y0086695D01*
X0081626Y0086718D01*
X0081708Y0086736D01*
X0081790Y0086751D01*
X0081873Y0086762D01*
X0081956Y0086769D01*
X0082040Y0086772D01*
X0082124Y0086771D01*
X0082207Y0086766D01*
X0082291Y0086757D01*
X0082373Y0086744D01*
X0082455Y0086728D01*
X0082536Y0086707D01*
X0082617Y0086683D01*
X0082695Y0086655D01*
X0082773Y0086623D01*
X0082849Y0086587D01*
X0082923Y0086548D01*
X0082995Y0086506D01*
X0083065Y0086460D01*
X0083133Y0086411D01*
X0083198Y0086359D01*
X0083261Y0086304D01*
X0083321Y0086246D01*
X0083379Y0086185D01*
X0083433Y0086121D01*
X0083485Y0086055D01*
X0083533Y0085987D01*
X0083578Y0085916D01*
X0083619Y0085843D01*
X0083658Y0085769D01*
X0083692Y0085693D01*
X0083723Y0085615D01*
X0083750Y0085536D01*
X0083774Y0085455D01*
X0083793Y0085374D01*
X0083809Y0085292D01*
X0083821Y0085209D01*
X0083829Y0085125D01*
X0083833Y0085042D01*
X0083833Y0084958D01*
X0083829Y0084875D01*
X0083821Y0084791D01*
X0083809Y0084708D01*
X0083793Y0084626D01*
X0083774Y0084545D01*
X0083750Y0084464D01*
X0083723Y0084385D01*
X0083692Y0084307D01*
X0083658Y0084231D01*
X0083619Y0084157D01*
X0083578Y0084084D01*
X0083533Y0084013D01*
X0083485Y0083945D01*
X0083433Y0083879D01*
X0083379Y0083815D01*
X0083321Y0083754D01*
X0083261Y0083696D01*
X0083198Y0083641D01*
X0083133Y0083589D01*
X0083065Y0083540D01*
X0082995Y0083494D01*
X0082923Y0083452D01*
X0082849Y0083413D01*
X0082773Y0083377D01*
X0082695Y0083345D01*
X0082617Y0083317D01*
X0082536Y0083293D01*
X0082455Y0083272D01*
X0082373Y0083256D01*
X0082291Y0083243D01*
X0082207Y0083234D01*
X0082124Y0083229D01*
X0082040Y0083228D01*
X0081956Y0083231D01*
X0081873Y0083238D01*
X0081790Y0083249D01*
X0081708Y0083264D01*
X0081626Y0083282D01*
X0081545Y0083305D01*
X0081466Y0083331D01*
X0081388Y0083361D01*
X0081311Y0083395D01*
X0081236Y0083432D01*
X0081163Y0083472D01*
X0081092Y0083517D01*
X0081023Y0083564D01*
X0080956Y0083615D01*
X0080892Y0083668D01*
X0080830Y0083725D01*
X0080772Y0083785D01*
X0080716Y0083847D01*
X0080663Y0083912D01*
X0080613Y0083979D01*
X0080566Y0084048D01*
X0080523Y0084120D01*
X0080483Y0084194D01*
X0080447Y0084269D01*
X0080414Y0084346D01*
X0080385Y0084425D01*
X0080360Y0084504D01*
X0080338Y0084585D01*
X0080321Y0084667D01*
X0080307Y0084750D01*
X0080297Y0084833D01*
X0080291Y0084916D01*
X0080289Y0085000D01*
X0062967Y0085000D02*
X0062969Y0085084D01*
X0062975Y0085167D01*
X0062985Y0085250D01*
X0062999Y0085333D01*
X0063016Y0085415D01*
X0063038Y0085496D01*
X0063063Y0085575D01*
X0063092Y0085654D01*
X0063125Y0085731D01*
X0063161Y0085806D01*
X0063201Y0085880D01*
X0063244Y0085952D01*
X0063291Y0086021D01*
X0063341Y0086088D01*
X0063394Y0086153D01*
X0063450Y0086215D01*
X0063508Y0086275D01*
X0063570Y0086332D01*
X0063634Y0086385D01*
X0063701Y0086436D01*
X0063770Y0086483D01*
X0063841Y0086528D01*
X0063914Y0086568D01*
X0063989Y0086605D01*
X0064066Y0086639D01*
X0064144Y0086669D01*
X0064223Y0086695D01*
X0064304Y0086718D01*
X0064386Y0086736D01*
X0064468Y0086751D01*
X0064551Y0086762D01*
X0064634Y0086769D01*
X0064718Y0086772D01*
X0064802Y0086771D01*
X0064885Y0086766D01*
X0064969Y0086757D01*
X0065051Y0086744D01*
X0065133Y0086728D01*
X0065214Y0086707D01*
X0065295Y0086683D01*
X0065373Y0086655D01*
X0065451Y0086623D01*
X0065527Y0086587D01*
X0065601Y0086548D01*
X0065673Y0086506D01*
X0065743Y0086460D01*
X0065811Y0086411D01*
X0065876Y0086359D01*
X0065939Y0086304D01*
X0065999Y0086246D01*
X0066057Y0086185D01*
X0066111Y0086121D01*
X0066163Y0086055D01*
X0066211Y0085987D01*
X0066256Y0085916D01*
X0066297Y0085843D01*
X0066336Y0085769D01*
X0066370Y0085693D01*
X0066401Y0085615D01*
X0066428Y0085536D01*
X0066452Y0085455D01*
X0066471Y0085374D01*
X0066487Y0085292D01*
X0066499Y0085209D01*
X0066507Y0085125D01*
X0066511Y0085042D01*
X0066511Y0084958D01*
X0066507Y0084875D01*
X0066499Y0084791D01*
X0066487Y0084708D01*
X0066471Y0084626D01*
X0066452Y0084545D01*
X0066428Y0084464D01*
X0066401Y0084385D01*
X0066370Y0084307D01*
X0066336Y0084231D01*
X0066297Y0084157D01*
X0066256Y0084084D01*
X0066211Y0084013D01*
X0066163Y0083945D01*
X0066111Y0083879D01*
X0066057Y0083815D01*
X0065999Y0083754D01*
X0065939Y0083696D01*
X0065876Y0083641D01*
X0065811Y0083589D01*
X0065743Y0083540D01*
X0065673Y0083494D01*
X0065601Y0083452D01*
X0065527Y0083413D01*
X0065451Y0083377D01*
X0065373Y0083345D01*
X0065295Y0083317D01*
X0065214Y0083293D01*
X0065133Y0083272D01*
X0065051Y0083256D01*
X0064969Y0083243D01*
X0064885Y0083234D01*
X0064802Y0083229D01*
X0064718Y0083228D01*
X0064634Y0083231D01*
X0064551Y0083238D01*
X0064468Y0083249D01*
X0064386Y0083264D01*
X0064304Y0083282D01*
X0064223Y0083305D01*
X0064144Y0083331D01*
X0064066Y0083361D01*
X0063989Y0083395D01*
X0063914Y0083432D01*
X0063841Y0083472D01*
X0063770Y0083517D01*
X0063701Y0083564D01*
X0063634Y0083615D01*
X0063570Y0083668D01*
X0063508Y0083725D01*
X0063450Y0083785D01*
X0063394Y0083847D01*
X0063341Y0083912D01*
X0063291Y0083979D01*
X0063244Y0084048D01*
X0063201Y0084120D01*
X0063161Y0084194D01*
X0063125Y0084269D01*
X0063092Y0084346D01*
X0063063Y0084425D01*
X0063038Y0084504D01*
X0063016Y0084585D01*
X0062999Y0084667D01*
X0062985Y0084750D01*
X0062975Y0084833D01*
X0062969Y0084916D01*
X0062967Y0085000D01*
X0007101Y0093400D02*
X0007103Y0093558D01*
X0007109Y0093716D01*
X0007119Y0093874D01*
X0007133Y0094032D01*
X0007151Y0094189D01*
X0007172Y0094346D01*
X0007198Y0094502D01*
X0007228Y0094658D01*
X0007261Y0094813D01*
X0007299Y0094966D01*
X0007340Y0095119D01*
X0007385Y0095271D01*
X0007434Y0095422D01*
X0007487Y0095571D01*
X0007543Y0095719D01*
X0007603Y0095865D01*
X0007667Y0096010D01*
X0007735Y0096153D01*
X0007806Y0096295D01*
X0007880Y0096435D01*
X0007958Y0096572D01*
X0008040Y0096708D01*
X0008124Y0096842D01*
X0008213Y0096973D01*
X0008304Y0097102D01*
X0008399Y0097229D01*
X0008496Y0097354D01*
X0008597Y0097476D01*
X0008701Y0097595D01*
X0008808Y0097712D01*
X0008918Y0097826D01*
X0009031Y0097937D01*
X0009146Y0098046D01*
X0009264Y0098151D01*
X0009385Y0098253D01*
X0009508Y0098353D01*
X0009634Y0098449D01*
X0009762Y0098542D01*
X0009892Y0098632D01*
X0010025Y0098718D01*
X0010160Y0098802D01*
X0010296Y0098881D01*
X0010435Y0098958D01*
X0010576Y0099030D01*
X0010718Y0099100D01*
X0010862Y0099165D01*
X0011008Y0099227D01*
X0011155Y0099285D01*
X0011304Y0099340D01*
X0011454Y0099391D01*
X0011605Y0099438D01*
X0011757Y0099481D01*
X0011910Y0099520D01*
X0012065Y0099556D01*
X0012220Y0099587D01*
X0012376Y0099615D01*
X0012532Y0099639D01*
X0012689Y0099659D01*
X0012847Y0099675D01*
X0013004Y0099687D01*
X0013163Y0099695D01*
X0013321Y0099699D01*
X0013479Y0099699D01*
X0013637Y0099695D01*
X0013796Y0099687D01*
X0013953Y0099675D01*
X0014111Y0099659D01*
X0014268Y0099639D01*
X0014424Y0099615D01*
X0014580Y0099587D01*
X0014735Y0099556D01*
X0014890Y0099520D01*
X0015043Y0099481D01*
X0015195Y0099438D01*
X0015346Y0099391D01*
X0015496Y0099340D01*
X0015645Y0099285D01*
X0015792Y0099227D01*
X0015938Y0099165D01*
X0016082Y0099100D01*
X0016224Y0099030D01*
X0016365Y0098958D01*
X0016504Y0098881D01*
X0016640Y0098802D01*
X0016775Y0098718D01*
X0016908Y0098632D01*
X0017038Y0098542D01*
X0017166Y0098449D01*
X0017292Y0098353D01*
X0017415Y0098253D01*
X0017536Y0098151D01*
X0017654Y0098046D01*
X0017769Y0097937D01*
X0017882Y0097826D01*
X0017992Y0097712D01*
X0018099Y0097595D01*
X0018203Y0097476D01*
X0018304Y0097354D01*
X0018401Y0097229D01*
X0018496Y0097102D01*
X0018587Y0096973D01*
X0018676Y0096842D01*
X0018760Y0096708D01*
X0018842Y0096572D01*
X0018920Y0096435D01*
X0018994Y0096295D01*
X0019065Y0096153D01*
X0019133Y0096010D01*
X0019197Y0095865D01*
X0019257Y0095719D01*
X0019313Y0095571D01*
X0019366Y0095422D01*
X0019415Y0095271D01*
X0019460Y0095119D01*
X0019501Y0094966D01*
X0019539Y0094813D01*
X0019572Y0094658D01*
X0019602Y0094502D01*
X0019628Y0094346D01*
X0019649Y0094189D01*
X0019667Y0094032D01*
X0019681Y0093874D01*
X0019691Y0093716D01*
X0019697Y0093558D01*
X0019699Y0093400D01*
X0019697Y0093242D01*
X0019691Y0093084D01*
X0019681Y0092926D01*
X0019667Y0092768D01*
X0019649Y0092611D01*
X0019628Y0092454D01*
X0019602Y0092298D01*
X0019572Y0092142D01*
X0019539Y0091987D01*
X0019501Y0091834D01*
X0019460Y0091681D01*
X0019415Y0091529D01*
X0019366Y0091378D01*
X0019313Y0091229D01*
X0019257Y0091081D01*
X0019197Y0090935D01*
X0019133Y0090790D01*
X0019065Y0090647D01*
X0018994Y0090505D01*
X0018920Y0090365D01*
X0018842Y0090228D01*
X0018760Y0090092D01*
X0018676Y0089958D01*
X0018587Y0089827D01*
X0018496Y0089698D01*
X0018401Y0089571D01*
X0018304Y0089446D01*
X0018203Y0089324D01*
X0018099Y0089205D01*
X0017992Y0089088D01*
X0017882Y0088974D01*
X0017769Y0088863D01*
X0017654Y0088754D01*
X0017536Y0088649D01*
X0017415Y0088547D01*
X0017292Y0088447D01*
X0017166Y0088351D01*
X0017038Y0088258D01*
X0016908Y0088168D01*
X0016775Y0088082D01*
X0016640Y0087998D01*
X0016504Y0087919D01*
X0016365Y0087842D01*
X0016224Y0087770D01*
X0016082Y0087700D01*
X0015938Y0087635D01*
X0015792Y0087573D01*
X0015645Y0087515D01*
X0015496Y0087460D01*
X0015346Y0087409D01*
X0015195Y0087362D01*
X0015043Y0087319D01*
X0014890Y0087280D01*
X0014735Y0087244D01*
X0014580Y0087213D01*
X0014424Y0087185D01*
X0014268Y0087161D01*
X0014111Y0087141D01*
X0013953Y0087125D01*
X0013796Y0087113D01*
X0013637Y0087105D01*
X0013479Y0087101D01*
X0013321Y0087101D01*
X0013163Y0087105D01*
X0013004Y0087113D01*
X0012847Y0087125D01*
X0012689Y0087141D01*
X0012532Y0087161D01*
X0012376Y0087185D01*
X0012220Y0087213D01*
X0012065Y0087244D01*
X0011910Y0087280D01*
X0011757Y0087319D01*
X0011605Y0087362D01*
X0011454Y0087409D01*
X0011304Y0087460D01*
X0011155Y0087515D01*
X0011008Y0087573D01*
X0010862Y0087635D01*
X0010718Y0087700D01*
X0010576Y0087770D01*
X0010435Y0087842D01*
X0010296Y0087919D01*
X0010160Y0087998D01*
X0010025Y0088082D01*
X0009892Y0088168D01*
X0009762Y0088258D01*
X0009634Y0088351D01*
X0009508Y0088447D01*
X0009385Y0088547D01*
X0009264Y0088649D01*
X0009146Y0088754D01*
X0009031Y0088863D01*
X0008918Y0088974D01*
X0008808Y0089088D01*
X0008701Y0089205D01*
X0008597Y0089324D01*
X0008496Y0089446D01*
X0008399Y0089571D01*
X0008304Y0089698D01*
X0008213Y0089827D01*
X0008124Y0089958D01*
X0008040Y0090092D01*
X0007958Y0090228D01*
X0007880Y0090365D01*
X0007806Y0090505D01*
X0007735Y0090647D01*
X0007667Y0090790D01*
X0007603Y0090935D01*
X0007543Y0091081D01*
X0007487Y0091229D01*
X0007434Y0091378D01*
X0007385Y0091529D01*
X0007340Y0091681D01*
X0007299Y0091834D01*
X0007261Y0091987D01*
X0007228Y0092142D01*
X0007198Y0092298D01*
X0007172Y0092454D01*
X0007151Y0092611D01*
X0007133Y0092768D01*
X0007119Y0092926D01*
X0007109Y0093084D01*
X0007103Y0093242D01*
X0007101Y0093400D01*
D11*
X0089171Y0052013D02*
X0089538Y0052013D01*
X0090272Y0052013D02*
X0091740Y0052013D01*
X0091740Y0052380D02*
X0091740Y0051646D01*
X0091740Y0050907D02*
X0091740Y0049806D01*
X0091373Y0049439D01*
X0091006Y0049439D01*
X0090639Y0049806D01*
X0090639Y0050907D01*
X0089538Y0050907D02*
X0089538Y0049806D01*
X0089905Y0049439D01*
X0090272Y0049439D01*
X0090639Y0049806D01*
X0090272Y0048697D02*
X0090272Y0048330D01*
X0091740Y0048330D01*
X0091740Y0048697D02*
X0091740Y0047963D01*
X0091740Y0047224D02*
X0091740Y0045756D01*
X0091740Y0045014D02*
X0091740Y0044280D01*
X0091740Y0044647D02*
X0090272Y0044647D01*
X0090272Y0045014D01*
X0090272Y0045756D02*
X0091740Y0047224D01*
X0090272Y0047224D02*
X0090272Y0045756D01*
X0089538Y0044647D02*
X0089171Y0044647D01*
X0090272Y0041331D02*
X0091740Y0040597D01*
X0090272Y0039863D01*
X0090272Y0039121D02*
X0089538Y0038387D01*
X0091740Y0038387D01*
X0091740Y0039121D02*
X0091740Y0037653D01*
X0093872Y0037283D02*
X0094239Y0036916D01*
X0095340Y0036916D01*
X0096738Y0037653D02*
X0097105Y0038387D01*
X0097839Y0039121D01*
X0097839Y0038020D01*
X0098206Y0037653D01*
X0098573Y0037653D01*
X0098940Y0038020D01*
X0098940Y0038754D01*
X0098573Y0039121D01*
X0097839Y0039121D01*
X0097105Y0039863D02*
X0098573Y0041331D01*
X0098940Y0040964D01*
X0098940Y0040230D01*
X0098573Y0039863D01*
X0097105Y0039863D01*
X0096738Y0040230D01*
X0096738Y0040964D01*
X0097105Y0041331D01*
X0098573Y0041331D01*
X0097839Y0042073D02*
X0097839Y0043540D01*
X0098206Y0044282D02*
X0097839Y0044649D01*
X0097839Y0045750D01*
X0098573Y0045750D01*
X0098940Y0045383D01*
X0098940Y0044649D01*
X0098573Y0044282D01*
X0098206Y0044282D01*
X0097105Y0045016D02*
X0097839Y0045750D01*
X0097105Y0045016D02*
X0096738Y0044282D01*
X0095340Y0044277D02*
X0095340Y0043176D01*
X0094973Y0042809D01*
X0094606Y0043176D01*
X0094606Y0043910D01*
X0094239Y0044277D01*
X0093872Y0043910D01*
X0093872Y0042809D01*
X0093872Y0042067D02*
X0093872Y0041700D01*
X0095340Y0041700D01*
X0095340Y0042067D02*
X0095340Y0041333D01*
X0094973Y0040594D02*
X0095340Y0040227D01*
X0095340Y0039493D01*
X0094973Y0039126D01*
X0094239Y0039126D01*
X0093872Y0039493D01*
X0093872Y0040227D01*
X0094239Y0040594D01*
X0094973Y0040594D01*
X0093138Y0041700D02*
X0092771Y0041700D01*
X0093872Y0038384D02*
X0093872Y0037283D01*
X0093872Y0038384D02*
X0095340Y0038384D01*
X0097839Y0036911D02*
X0097839Y0035443D01*
X0097472Y0034701D02*
X0096738Y0033967D01*
X0098940Y0033967D01*
X0098940Y0034701D02*
X0098940Y0033233D01*
X0097839Y0032491D02*
X0097839Y0031023D01*
X0096738Y0031390D02*
X0097839Y0032491D01*
X0098940Y0031390D02*
X0096738Y0031390D01*
X0095340Y0031754D02*
X0095340Y0030654D01*
X0094973Y0030287D01*
X0093505Y0030287D01*
X0093138Y0030654D01*
X0093138Y0031754D01*
X0095340Y0031754D01*
X0095340Y0032496D02*
X0095340Y0033964D01*
X0095340Y0033230D02*
X0093138Y0033230D01*
X0093872Y0033964D01*
X0095340Y0045016D02*
X0095340Y0045750D01*
X0095340Y0045383D02*
X0093872Y0045383D01*
X0093872Y0045750D01*
X0093872Y0046492D02*
X0095340Y0047226D01*
X0093872Y0047960D01*
X0094239Y0048702D02*
X0093872Y0049069D01*
X0093872Y0049803D01*
X0094239Y0050170D01*
X0094973Y0050170D01*
X0095340Y0049803D01*
X0095340Y0049069D01*
X0094606Y0048702D02*
X0094606Y0050170D01*
X0094239Y0050912D02*
X0093505Y0050912D01*
X0093138Y0051279D01*
X0093138Y0052380D01*
X0095340Y0052380D01*
X0094606Y0052380D02*
X0094606Y0051279D01*
X0094239Y0050912D01*
X0094606Y0051646D02*
X0095340Y0050912D01*
X0096738Y0051279D02*
X0096738Y0052013D01*
X0097105Y0052380D01*
X0096738Y0051279D02*
X0097105Y0050912D01*
X0097472Y0050912D01*
X0098940Y0052380D01*
X0098940Y0050912D01*
X0098573Y0050170D02*
X0097105Y0048702D01*
X0098573Y0048702D01*
X0098940Y0049069D01*
X0098940Y0049803D01*
X0098573Y0050170D01*
X0097105Y0050170D01*
X0096738Y0049803D01*
X0096738Y0049069D01*
X0097105Y0048702D01*
X0097472Y0047960D02*
X0096738Y0047226D01*
X0098940Y0047226D01*
X0098940Y0047960D02*
X0098940Y0046492D01*
X0094606Y0048702D02*
X0094239Y0048702D01*
X0091740Y0050907D02*
X0089538Y0050907D01*
X0090272Y0052013D02*
X0090272Y0052380D01*
X0089538Y0048330D02*
X0089171Y0048330D01*
X0092771Y0045383D02*
X0093138Y0045383D01*
M02*
