G75*
%MOIN*%
%OFA0B0*%
%FSLAX25Y25*%
%IPPOS*%
%LPD*%
%AMOC8*
5,1,8,0,0,1.08239X$1,22.5*
%
%ADD10C,0.00000*%
%ADD11C,0.00200*%
%ADD12C,0.00300*%
%ADD13C,0.00315*%
%ADD14C,0.00800*%
%ADD15C,0.01200*%
%ADD16C,0.00500*%
%ADD17C,0.00394*%
D10*
X0003400Y0003213D02*
X0003413Y0003200D01*
X0003440Y0003200D01*
X0003453Y0003213D01*
X0003474Y0003213D02*
X0003474Y0003200D01*
X0003487Y0003200D01*
X0003487Y0003213D01*
X0003474Y0003213D01*
X0003474Y0003240D02*
X0003474Y0003253D01*
X0003487Y0003253D01*
X0003487Y0003240D01*
X0003474Y0003240D01*
X0003453Y0003267D02*
X0003440Y0003280D01*
X0003413Y0003280D01*
X0003400Y0003267D01*
X0003400Y0003213D01*
X0003510Y0003200D02*
X0003564Y0003280D01*
X0003584Y0003267D02*
X0003584Y0003253D01*
X0003597Y0003240D01*
X0003624Y0003240D01*
X0003637Y0003227D01*
X0003637Y0003213D01*
X0003624Y0003200D01*
X0003597Y0003200D01*
X0003584Y0003213D01*
X0003584Y0003267D02*
X0003597Y0003280D01*
X0003624Y0003280D01*
X0003637Y0003267D01*
X0003658Y0003280D02*
X0003658Y0003200D01*
X0003658Y0003240D02*
X0003671Y0003253D01*
X0003698Y0003253D01*
X0003711Y0003240D01*
X0003711Y0003200D01*
X0003731Y0003213D02*
X0003745Y0003227D01*
X0003785Y0003227D01*
X0003785Y0003240D02*
X0003785Y0003200D01*
X0003745Y0003200D01*
X0003731Y0003213D01*
X0003745Y0003253D02*
X0003771Y0003253D01*
X0003785Y0003240D01*
X0003805Y0003227D02*
X0003832Y0003253D01*
X0003845Y0003253D01*
X0003866Y0003240D02*
X0003880Y0003253D01*
X0003906Y0003253D01*
X0003920Y0003240D01*
X0003920Y0003227D01*
X0003866Y0003227D01*
X0003866Y0003240D02*
X0003866Y0003213D01*
X0003880Y0003200D01*
X0003906Y0003200D01*
X0003940Y0003200D02*
X0003993Y0003280D01*
X0004027Y0003253D02*
X0004054Y0003253D01*
X0004067Y0003240D01*
X0004067Y0003227D01*
X0004014Y0003227D01*
X0004014Y0003240D02*
X0004027Y0003253D01*
X0004014Y0003240D02*
X0004014Y0003213D01*
X0004027Y0003200D01*
X0004054Y0003200D01*
X0004087Y0003200D02*
X0004087Y0003253D01*
X0004101Y0003253D01*
X0004114Y0003240D01*
X0004127Y0003253D01*
X0004141Y0003240D01*
X0004141Y0003200D01*
X0004161Y0003200D02*
X0004201Y0003200D01*
X0004214Y0003213D01*
X0004214Y0003240D01*
X0004201Y0003253D01*
X0004161Y0003253D01*
X0004161Y0003280D02*
X0004161Y0003200D01*
X0004114Y0003200D02*
X0004114Y0003240D01*
X0004235Y0003240D02*
X0004248Y0003253D01*
X0004275Y0003253D01*
X0004288Y0003240D01*
X0004288Y0003227D01*
X0004235Y0003227D01*
X0004235Y0003240D02*
X0004235Y0003213D01*
X0004248Y0003200D01*
X0004275Y0003200D01*
X0004308Y0003213D02*
X0004308Y0003240D01*
X0004322Y0003253D01*
X0004362Y0003253D01*
X0004382Y0003240D02*
X0004395Y0003253D01*
X0004435Y0003253D01*
X0004456Y0003240D02*
X0004469Y0003253D01*
X0004496Y0003253D01*
X0004509Y0003240D01*
X0004509Y0003227D01*
X0004456Y0003227D01*
X0004456Y0003240D02*
X0004456Y0003213D01*
X0004469Y0003200D01*
X0004496Y0003200D01*
X0004529Y0003213D02*
X0004529Y0003240D01*
X0004543Y0003253D01*
X0004583Y0003253D01*
X0004603Y0003240D02*
X0004603Y0003213D01*
X0004616Y0003200D01*
X0004656Y0003200D01*
X0004677Y0003200D02*
X0004703Y0003200D01*
X0004690Y0003200D02*
X0004690Y0003280D01*
X0004677Y0003280D01*
X0004656Y0003253D02*
X0004616Y0003253D01*
X0004603Y0003240D01*
X0004583Y0003200D02*
X0004543Y0003200D01*
X0004529Y0003213D01*
X0004583Y0003200D02*
X0004583Y0003280D01*
X0004726Y0003253D02*
X0004726Y0003213D01*
X0004739Y0003200D01*
X0004779Y0003200D01*
X0004779Y0003253D01*
X0004799Y0003253D02*
X0004839Y0003253D01*
X0004853Y0003240D01*
X0004853Y0003213D01*
X0004839Y0003200D01*
X0004799Y0003200D01*
X0004799Y0003280D01*
X0004873Y0003280D02*
X0004886Y0003280D01*
X0004886Y0003200D01*
X0004873Y0003200D02*
X0004900Y0003200D01*
X0004922Y0003213D02*
X0004935Y0003200D01*
X0004962Y0003200D01*
X0004975Y0003213D01*
X0004975Y0003240D01*
X0004962Y0003253D01*
X0004935Y0003253D01*
X0004922Y0003240D01*
X0004922Y0003213D01*
X0004996Y0003213D02*
X0005009Y0003200D01*
X0005049Y0003200D01*
X0005049Y0003187D02*
X0005049Y0003253D01*
X0005009Y0003253D01*
X0004996Y0003240D01*
X0004996Y0003213D01*
X0005022Y0003173D02*
X0005036Y0003173D01*
X0005049Y0003187D01*
X0005069Y0003213D02*
X0005083Y0003200D01*
X0005109Y0003200D01*
X0005123Y0003213D01*
X0005123Y0003240D01*
X0005109Y0003253D01*
X0005083Y0003253D01*
X0005069Y0003240D01*
X0005069Y0003213D01*
X0005143Y0003200D02*
X0005196Y0003200D01*
X0005217Y0003200D02*
X0005230Y0003200D01*
X0005230Y0003213D01*
X0005217Y0003213D01*
X0005217Y0003200D01*
X0005253Y0003200D02*
X0005293Y0003200D01*
X0005307Y0003213D01*
X0005307Y0003240D01*
X0005293Y0003253D01*
X0005253Y0003253D01*
X0005253Y0003280D02*
X0005253Y0003200D01*
X0005327Y0003200D02*
X0005327Y0003253D01*
X0005340Y0003253D01*
X0005354Y0003240D01*
X0005367Y0003253D01*
X0005380Y0003240D01*
X0005380Y0003200D01*
X0005401Y0003200D02*
X0005441Y0003200D01*
X0005454Y0003213D01*
X0005454Y0003240D01*
X0005441Y0003253D01*
X0005401Y0003253D01*
X0005401Y0003173D01*
X0005354Y0003200D02*
X0005354Y0003240D01*
X0005170Y0003280D02*
X0005170Y0003200D01*
X0005143Y0003253D02*
X0005170Y0003280D01*
X0004435Y0003280D02*
X0004435Y0003200D01*
X0004395Y0003200D01*
X0004382Y0003213D01*
X0004382Y0003240D01*
X0004362Y0003200D02*
X0004322Y0003200D01*
X0004308Y0003213D01*
X0004362Y0003200D02*
X0004362Y0003280D01*
X0003805Y0003253D02*
X0003805Y0003200D01*
X0003400Y0003400D02*
X0003400Y0103400D01*
X0103400Y0103400D01*
X0103400Y0003400D01*
X0003400Y0003400D01*
X0047101Y0013400D02*
X0047103Y0013558D01*
X0047109Y0013716D01*
X0047119Y0013874D01*
X0047133Y0014032D01*
X0047151Y0014189D01*
X0047172Y0014346D01*
X0047198Y0014502D01*
X0047228Y0014658D01*
X0047261Y0014813D01*
X0047299Y0014966D01*
X0047340Y0015119D01*
X0047385Y0015271D01*
X0047434Y0015422D01*
X0047487Y0015571D01*
X0047543Y0015719D01*
X0047603Y0015865D01*
X0047667Y0016010D01*
X0047735Y0016153D01*
X0047806Y0016295D01*
X0047880Y0016435D01*
X0047958Y0016572D01*
X0048040Y0016708D01*
X0048124Y0016842D01*
X0048213Y0016973D01*
X0048304Y0017102D01*
X0048399Y0017229D01*
X0048496Y0017354D01*
X0048597Y0017476D01*
X0048701Y0017595D01*
X0048808Y0017712D01*
X0048918Y0017826D01*
X0049031Y0017937D01*
X0049146Y0018046D01*
X0049264Y0018151D01*
X0049385Y0018253D01*
X0049508Y0018353D01*
X0049634Y0018449D01*
X0049762Y0018542D01*
X0049892Y0018632D01*
X0050025Y0018718D01*
X0050160Y0018802D01*
X0050296Y0018881D01*
X0050435Y0018958D01*
X0050576Y0019030D01*
X0050718Y0019100D01*
X0050862Y0019165D01*
X0051008Y0019227D01*
X0051155Y0019285D01*
X0051304Y0019340D01*
X0051454Y0019391D01*
X0051605Y0019438D01*
X0051757Y0019481D01*
X0051910Y0019520D01*
X0052065Y0019556D01*
X0052220Y0019587D01*
X0052376Y0019615D01*
X0052532Y0019639D01*
X0052689Y0019659D01*
X0052847Y0019675D01*
X0053004Y0019687D01*
X0053163Y0019695D01*
X0053321Y0019699D01*
X0053479Y0019699D01*
X0053637Y0019695D01*
X0053796Y0019687D01*
X0053953Y0019675D01*
X0054111Y0019659D01*
X0054268Y0019639D01*
X0054424Y0019615D01*
X0054580Y0019587D01*
X0054735Y0019556D01*
X0054890Y0019520D01*
X0055043Y0019481D01*
X0055195Y0019438D01*
X0055346Y0019391D01*
X0055496Y0019340D01*
X0055645Y0019285D01*
X0055792Y0019227D01*
X0055938Y0019165D01*
X0056082Y0019100D01*
X0056224Y0019030D01*
X0056365Y0018958D01*
X0056504Y0018881D01*
X0056640Y0018802D01*
X0056775Y0018718D01*
X0056908Y0018632D01*
X0057038Y0018542D01*
X0057166Y0018449D01*
X0057292Y0018353D01*
X0057415Y0018253D01*
X0057536Y0018151D01*
X0057654Y0018046D01*
X0057769Y0017937D01*
X0057882Y0017826D01*
X0057992Y0017712D01*
X0058099Y0017595D01*
X0058203Y0017476D01*
X0058304Y0017354D01*
X0058401Y0017229D01*
X0058496Y0017102D01*
X0058587Y0016973D01*
X0058676Y0016842D01*
X0058760Y0016708D01*
X0058842Y0016572D01*
X0058920Y0016435D01*
X0058994Y0016295D01*
X0059065Y0016153D01*
X0059133Y0016010D01*
X0059197Y0015865D01*
X0059257Y0015719D01*
X0059313Y0015571D01*
X0059366Y0015422D01*
X0059415Y0015271D01*
X0059460Y0015119D01*
X0059501Y0014966D01*
X0059539Y0014813D01*
X0059572Y0014658D01*
X0059602Y0014502D01*
X0059628Y0014346D01*
X0059649Y0014189D01*
X0059667Y0014032D01*
X0059681Y0013874D01*
X0059691Y0013716D01*
X0059697Y0013558D01*
X0059699Y0013400D01*
X0059697Y0013242D01*
X0059691Y0013084D01*
X0059681Y0012926D01*
X0059667Y0012768D01*
X0059649Y0012611D01*
X0059628Y0012454D01*
X0059602Y0012298D01*
X0059572Y0012142D01*
X0059539Y0011987D01*
X0059501Y0011834D01*
X0059460Y0011681D01*
X0059415Y0011529D01*
X0059366Y0011378D01*
X0059313Y0011229D01*
X0059257Y0011081D01*
X0059197Y0010935D01*
X0059133Y0010790D01*
X0059065Y0010647D01*
X0058994Y0010505D01*
X0058920Y0010365D01*
X0058842Y0010228D01*
X0058760Y0010092D01*
X0058676Y0009958D01*
X0058587Y0009827D01*
X0058496Y0009698D01*
X0058401Y0009571D01*
X0058304Y0009446D01*
X0058203Y0009324D01*
X0058099Y0009205D01*
X0057992Y0009088D01*
X0057882Y0008974D01*
X0057769Y0008863D01*
X0057654Y0008754D01*
X0057536Y0008649D01*
X0057415Y0008547D01*
X0057292Y0008447D01*
X0057166Y0008351D01*
X0057038Y0008258D01*
X0056908Y0008168D01*
X0056775Y0008082D01*
X0056640Y0007998D01*
X0056504Y0007919D01*
X0056365Y0007842D01*
X0056224Y0007770D01*
X0056082Y0007700D01*
X0055938Y0007635D01*
X0055792Y0007573D01*
X0055645Y0007515D01*
X0055496Y0007460D01*
X0055346Y0007409D01*
X0055195Y0007362D01*
X0055043Y0007319D01*
X0054890Y0007280D01*
X0054735Y0007244D01*
X0054580Y0007213D01*
X0054424Y0007185D01*
X0054268Y0007161D01*
X0054111Y0007141D01*
X0053953Y0007125D01*
X0053796Y0007113D01*
X0053637Y0007105D01*
X0053479Y0007101D01*
X0053321Y0007101D01*
X0053163Y0007105D01*
X0053004Y0007113D01*
X0052847Y0007125D01*
X0052689Y0007141D01*
X0052532Y0007161D01*
X0052376Y0007185D01*
X0052220Y0007213D01*
X0052065Y0007244D01*
X0051910Y0007280D01*
X0051757Y0007319D01*
X0051605Y0007362D01*
X0051454Y0007409D01*
X0051304Y0007460D01*
X0051155Y0007515D01*
X0051008Y0007573D01*
X0050862Y0007635D01*
X0050718Y0007700D01*
X0050576Y0007770D01*
X0050435Y0007842D01*
X0050296Y0007919D01*
X0050160Y0007998D01*
X0050025Y0008082D01*
X0049892Y0008168D01*
X0049762Y0008258D01*
X0049634Y0008351D01*
X0049508Y0008447D01*
X0049385Y0008547D01*
X0049264Y0008649D01*
X0049146Y0008754D01*
X0049031Y0008863D01*
X0048918Y0008974D01*
X0048808Y0009088D01*
X0048701Y0009205D01*
X0048597Y0009324D01*
X0048496Y0009446D01*
X0048399Y0009571D01*
X0048304Y0009698D01*
X0048213Y0009827D01*
X0048124Y0009958D01*
X0048040Y0010092D01*
X0047958Y0010228D01*
X0047880Y0010365D01*
X0047806Y0010505D01*
X0047735Y0010647D01*
X0047667Y0010790D01*
X0047603Y0010935D01*
X0047543Y0011081D01*
X0047487Y0011229D01*
X0047434Y0011378D01*
X0047385Y0011529D01*
X0047340Y0011681D01*
X0047299Y0011834D01*
X0047261Y0011987D01*
X0047228Y0012142D01*
X0047198Y0012298D01*
X0047172Y0012454D01*
X0047151Y0012611D01*
X0047133Y0012768D01*
X0047119Y0012926D01*
X0047109Y0013084D01*
X0047103Y0013242D01*
X0047101Y0013400D01*
X0087101Y0013400D02*
X0087103Y0013558D01*
X0087109Y0013716D01*
X0087119Y0013874D01*
X0087133Y0014032D01*
X0087151Y0014189D01*
X0087172Y0014346D01*
X0087198Y0014502D01*
X0087228Y0014658D01*
X0087261Y0014813D01*
X0087299Y0014966D01*
X0087340Y0015119D01*
X0087385Y0015271D01*
X0087434Y0015422D01*
X0087487Y0015571D01*
X0087543Y0015719D01*
X0087603Y0015865D01*
X0087667Y0016010D01*
X0087735Y0016153D01*
X0087806Y0016295D01*
X0087880Y0016435D01*
X0087958Y0016572D01*
X0088040Y0016708D01*
X0088124Y0016842D01*
X0088213Y0016973D01*
X0088304Y0017102D01*
X0088399Y0017229D01*
X0088496Y0017354D01*
X0088597Y0017476D01*
X0088701Y0017595D01*
X0088808Y0017712D01*
X0088918Y0017826D01*
X0089031Y0017937D01*
X0089146Y0018046D01*
X0089264Y0018151D01*
X0089385Y0018253D01*
X0089508Y0018353D01*
X0089634Y0018449D01*
X0089762Y0018542D01*
X0089892Y0018632D01*
X0090025Y0018718D01*
X0090160Y0018802D01*
X0090296Y0018881D01*
X0090435Y0018958D01*
X0090576Y0019030D01*
X0090718Y0019100D01*
X0090862Y0019165D01*
X0091008Y0019227D01*
X0091155Y0019285D01*
X0091304Y0019340D01*
X0091454Y0019391D01*
X0091605Y0019438D01*
X0091757Y0019481D01*
X0091910Y0019520D01*
X0092065Y0019556D01*
X0092220Y0019587D01*
X0092376Y0019615D01*
X0092532Y0019639D01*
X0092689Y0019659D01*
X0092847Y0019675D01*
X0093004Y0019687D01*
X0093163Y0019695D01*
X0093321Y0019699D01*
X0093479Y0019699D01*
X0093637Y0019695D01*
X0093796Y0019687D01*
X0093953Y0019675D01*
X0094111Y0019659D01*
X0094268Y0019639D01*
X0094424Y0019615D01*
X0094580Y0019587D01*
X0094735Y0019556D01*
X0094890Y0019520D01*
X0095043Y0019481D01*
X0095195Y0019438D01*
X0095346Y0019391D01*
X0095496Y0019340D01*
X0095645Y0019285D01*
X0095792Y0019227D01*
X0095938Y0019165D01*
X0096082Y0019100D01*
X0096224Y0019030D01*
X0096365Y0018958D01*
X0096504Y0018881D01*
X0096640Y0018802D01*
X0096775Y0018718D01*
X0096908Y0018632D01*
X0097038Y0018542D01*
X0097166Y0018449D01*
X0097292Y0018353D01*
X0097415Y0018253D01*
X0097536Y0018151D01*
X0097654Y0018046D01*
X0097769Y0017937D01*
X0097882Y0017826D01*
X0097992Y0017712D01*
X0098099Y0017595D01*
X0098203Y0017476D01*
X0098304Y0017354D01*
X0098401Y0017229D01*
X0098496Y0017102D01*
X0098587Y0016973D01*
X0098676Y0016842D01*
X0098760Y0016708D01*
X0098842Y0016572D01*
X0098920Y0016435D01*
X0098994Y0016295D01*
X0099065Y0016153D01*
X0099133Y0016010D01*
X0099197Y0015865D01*
X0099257Y0015719D01*
X0099313Y0015571D01*
X0099366Y0015422D01*
X0099415Y0015271D01*
X0099460Y0015119D01*
X0099501Y0014966D01*
X0099539Y0014813D01*
X0099572Y0014658D01*
X0099602Y0014502D01*
X0099628Y0014346D01*
X0099649Y0014189D01*
X0099667Y0014032D01*
X0099681Y0013874D01*
X0099691Y0013716D01*
X0099697Y0013558D01*
X0099699Y0013400D01*
X0099697Y0013242D01*
X0099691Y0013084D01*
X0099681Y0012926D01*
X0099667Y0012768D01*
X0099649Y0012611D01*
X0099628Y0012454D01*
X0099602Y0012298D01*
X0099572Y0012142D01*
X0099539Y0011987D01*
X0099501Y0011834D01*
X0099460Y0011681D01*
X0099415Y0011529D01*
X0099366Y0011378D01*
X0099313Y0011229D01*
X0099257Y0011081D01*
X0099197Y0010935D01*
X0099133Y0010790D01*
X0099065Y0010647D01*
X0098994Y0010505D01*
X0098920Y0010365D01*
X0098842Y0010228D01*
X0098760Y0010092D01*
X0098676Y0009958D01*
X0098587Y0009827D01*
X0098496Y0009698D01*
X0098401Y0009571D01*
X0098304Y0009446D01*
X0098203Y0009324D01*
X0098099Y0009205D01*
X0097992Y0009088D01*
X0097882Y0008974D01*
X0097769Y0008863D01*
X0097654Y0008754D01*
X0097536Y0008649D01*
X0097415Y0008547D01*
X0097292Y0008447D01*
X0097166Y0008351D01*
X0097038Y0008258D01*
X0096908Y0008168D01*
X0096775Y0008082D01*
X0096640Y0007998D01*
X0096504Y0007919D01*
X0096365Y0007842D01*
X0096224Y0007770D01*
X0096082Y0007700D01*
X0095938Y0007635D01*
X0095792Y0007573D01*
X0095645Y0007515D01*
X0095496Y0007460D01*
X0095346Y0007409D01*
X0095195Y0007362D01*
X0095043Y0007319D01*
X0094890Y0007280D01*
X0094735Y0007244D01*
X0094580Y0007213D01*
X0094424Y0007185D01*
X0094268Y0007161D01*
X0094111Y0007141D01*
X0093953Y0007125D01*
X0093796Y0007113D01*
X0093637Y0007105D01*
X0093479Y0007101D01*
X0093321Y0007101D01*
X0093163Y0007105D01*
X0093004Y0007113D01*
X0092847Y0007125D01*
X0092689Y0007141D01*
X0092532Y0007161D01*
X0092376Y0007185D01*
X0092220Y0007213D01*
X0092065Y0007244D01*
X0091910Y0007280D01*
X0091757Y0007319D01*
X0091605Y0007362D01*
X0091454Y0007409D01*
X0091304Y0007460D01*
X0091155Y0007515D01*
X0091008Y0007573D01*
X0090862Y0007635D01*
X0090718Y0007700D01*
X0090576Y0007770D01*
X0090435Y0007842D01*
X0090296Y0007919D01*
X0090160Y0007998D01*
X0090025Y0008082D01*
X0089892Y0008168D01*
X0089762Y0008258D01*
X0089634Y0008351D01*
X0089508Y0008447D01*
X0089385Y0008547D01*
X0089264Y0008649D01*
X0089146Y0008754D01*
X0089031Y0008863D01*
X0088918Y0008974D01*
X0088808Y0009088D01*
X0088701Y0009205D01*
X0088597Y0009324D01*
X0088496Y0009446D01*
X0088399Y0009571D01*
X0088304Y0009698D01*
X0088213Y0009827D01*
X0088124Y0009958D01*
X0088040Y0010092D01*
X0087958Y0010228D01*
X0087880Y0010365D01*
X0087806Y0010505D01*
X0087735Y0010647D01*
X0087667Y0010790D01*
X0087603Y0010935D01*
X0087543Y0011081D01*
X0087487Y0011229D01*
X0087434Y0011378D01*
X0087385Y0011529D01*
X0087340Y0011681D01*
X0087299Y0011834D01*
X0087261Y0011987D01*
X0087228Y0012142D01*
X0087198Y0012298D01*
X0087172Y0012454D01*
X0087151Y0012611D01*
X0087133Y0012768D01*
X0087119Y0012926D01*
X0087109Y0013084D01*
X0087103Y0013242D01*
X0087101Y0013400D01*
X0080289Y0085000D02*
X0080291Y0085084D01*
X0080297Y0085167D01*
X0080307Y0085250D01*
X0080321Y0085333D01*
X0080338Y0085415D01*
X0080360Y0085496D01*
X0080385Y0085575D01*
X0080414Y0085654D01*
X0080447Y0085731D01*
X0080483Y0085806D01*
X0080523Y0085880D01*
X0080566Y0085952D01*
X0080613Y0086021D01*
X0080663Y0086088D01*
X0080716Y0086153D01*
X0080772Y0086215D01*
X0080830Y0086275D01*
X0080892Y0086332D01*
X0080956Y0086385D01*
X0081023Y0086436D01*
X0081092Y0086483D01*
X0081163Y0086528D01*
X0081236Y0086568D01*
X0081311Y0086605D01*
X0081388Y0086639D01*
X0081466Y0086669D01*
X0081545Y0086695D01*
X0081626Y0086718D01*
X0081708Y0086736D01*
X0081790Y0086751D01*
X0081873Y0086762D01*
X0081956Y0086769D01*
X0082040Y0086772D01*
X0082124Y0086771D01*
X0082207Y0086766D01*
X0082291Y0086757D01*
X0082373Y0086744D01*
X0082455Y0086728D01*
X0082536Y0086707D01*
X0082617Y0086683D01*
X0082695Y0086655D01*
X0082773Y0086623D01*
X0082849Y0086587D01*
X0082923Y0086548D01*
X0082995Y0086506D01*
X0083065Y0086460D01*
X0083133Y0086411D01*
X0083198Y0086359D01*
X0083261Y0086304D01*
X0083321Y0086246D01*
X0083379Y0086185D01*
X0083433Y0086121D01*
X0083485Y0086055D01*
X0083533Y0085987D01*
X0083578Y0085916D01*
X0083619Y0085843D01*
X0083658Y0085769D01*
X0083692Y0085693D01*
X0083723Y0085615D01*
X0083750Y0085536D01*
X0083774Y0085455D01*
X0083793Y0085374D01*
X0083809Y0085292D01*
X0083821Y0085209D01*
X0083829Y0085125D01*
X0083833Y0085042D01*
X0083833Y0084958D01*
X0083829Y0084875D01*
X0083821Y0084791D01*
X0083809Y0084708D01*
X0083793Y0084626D01*
X0083774Y0084545D01*
X0083750Y0084464D01*
X0083723Y0084385D01*
X0083692Y0084307D01*
X0083658Y0084231D01*
X0083619Y0084157D01*
X0083578Y0084084D01*
X0083533Y0084013D01*
X0083485Y0083945D01*
X0083433Y0083879D01*
X0083379Y0083815D01*
X0083321Y0083754D01*
X0083261Y0083696D01*
X0083198Y0083641D01*
X0083133Y0083589D01*
X0083065Y0083540D01*
X0082995Y0083494D01*
X0082923Y0083452D01*
X0082849Y0083413D01*
X0082773Y0083377D01*
X0082695Y0083345D01*
X0082617Y0083317D01*
X0082536Y0083293D01*
X0082455Y0083272D01*
X0082373Y0083256D01*
X0082291Y0083243D01*
X0082207Y0083234D01*
X0082124Y0083229D01*
X0082040Y0083228D01*
X0081956Y0083231D01*
X0081873Y0083238D01*
X0081790Y0083249D01*
X0081708Y0083264D01*
X0081626Y0083282D01*
X0081545Y0083305D01*
X0081466Y0083331D01*
X0081388Y0083361D01*
X0081311Y0083395D01*
X0081236Y0083432D01*
X0081163Y0083472D01*
X0081092Y0083517D01*
X0081023Y0083564D01*
X0080956Y0083615D01*
X0080892Y0083668D01*
X0080830Y0083725D01*
X0080772Y0083785D01*
X0080716Y0083847D01*
X0080663Y0083912D01*
X0080613Y0083979D01*
X0080566Y0084048D01*
X0080523Y0084120D01*
X0080483Y0084194D01*
X0080447Y0084269D01*
X0080414Y0084346D01*
X0080385Y0084425D01*
X0080360Y0084504D01*
X0080338Y0084585D01*
X0080321Y0084667D01*
X0080307Y0084750D01*
X0080297Y0084833D01*
X0080291Y0084916D01*
X0080289Y0085000D01*
X0062967Y0085000D02*
X0062969Y0085084D01*
X0062975Y0085167D01*
X0062985Y0085250D01*
X0062999Y0085333D01*
X0063016Y0085415D01*
X0063038Y0085496D01*
X0063063Y0085575D01*
X0063092Y0085654D01*
X0063125Y0085731D01*
X0063161Y0085806D01*
X0063201Y0085880D01*
X0063244Y0085952D01*
X0063291Y0086021D01*
X0063341Y0086088D01*
X0063394Y0086153D01*
X0063450Y0086215D01*
X0063508Y0086275D01*
X0063570Y0086332D01*
X0063634Y0086385D01*
X0063701Y0086436D01*
X0063770Y0086483D01*
X0063841Y0086528D01*
X0063914Y0086568D01*
X0063989Y0086605D01*
X0064066Y0086639D01*
X0064144Y0086669D01*
X0064223Y0086695D01*
X0064304Y0086718D01*
X0064386Y0086736D01*
X0064468Y0086751D01*
X0064551Y0086762D01*
X0064634Y0086769D01*
X0064718Y0086772D01*
X0064802Y0086771D01*
X0064885Y0086766D01*
X0064969Y0086757D01*
X0065051Y0086744D01*
X0065133Y0086728D01*
X0065214Y0086707D01*
X0065295Y0086683D01*
X0065373Y0086655D01*
X0065451Y0086623D01*
X0065527Y0086587D01*
X0065601Y0086548D01*
X0065673Y0086506D01*
X0065743Y0086460D01*
X0065811Y0086411D01*
X0065876Y0086359D01*
X0065939Y0086304D01*
X0065999Y0086246D01*
X0066057Y0086185D01*
X0066111Y0086121D01*
X0066163Y0086055D01*
X0066211Y0085987D01*
X0066256Y0085916D01*
X0066297Y0085843D01*
X0066336Y0085769D01*
X0066370Y0085693D01*
X0066401Y0085615D01*
X0066428Y0085536D01*
X0066452Y0085455D01*
X0066471Y0085374D01*
X0066487Y0085292D01*
X0066499Y0085209D01*
X0066507Y0085125D01*
X0066511Y0085042D01*
X0066511Y0084958D01*
X0066507Y0084875D01*
X0066499Y0084791D01*
X0066487Y0084708D01*
X0066471Y0084626D01*
X0066452Y0084545D01*
X0066428Y0084464D01*
X0066401Y0084385D01*
X0066370Y0084307D01*
X0066336Y0084231D01*
X0066297Y0084157D01*
X0066256Y0084084D01*
X0066211Y0084013D01*
X0066163Y0083945D01*
X0066111Y0083879D01*
X0066057Y0083815D01*
X0065999Y0083754D01*
X0065939Y0083696D01*
X0065876Y0083641D01*
X0065811Y0083589D01*
X0065743Y0083540D01*
X0065673Y0083494D01*
X0065601Y0083452D01*
X0065527Y0083413D01*
X0065451Y0083377D01*
X0065373Y0083345D01*
X0065295Y0083317D01*
X0065214Y0083293D01*
X0065133Y0083272D01*
X0065051Y0083256D01*
X0064969Y0083243D01*
X0064885Y0083234D01*
X0064802Y0083229D01*
X0064718Y0083228D01*
X0064634Y0083231D01*
X0064551Y0083238D01*
X0064468Y0083249D01*
X0064386Y0083264D01*
X0064304Y0083282D01*
X0064223Y0083305D01*
X0064144Y0083331D01*
X0064066Y0083361D01*
X0063989Y0083395D01*
X0063914Y0083432D01*
X0063841Y0083472D01*
X0063770Y0083517D01*
X0063701Y0083564D01*
X0063634Y0083615D01*
X0063570Y0083668D01*
X0063508Y0083725D01*
X0063450Y0083785D01*
X0063394Y0083847D01*
X0063341Y0083912D01*
X0063291Y0083979D01*
X0063244Y0084048D01*
X0063201Y0084120D01*
X0063161Y0084194D01*
X0063125Y0084269D01*
X0063092Y0084346D01*
X0063063Y0084425D01*
X0063038Y0084504D01*
X0063016Y0084585D01*
X0062999Y0084667D01*
X0062985Y0084750D01*
X0062975Y0084833D01*
X0062969Y0084916D01*
X0062967Y0085000D01*
X0007101Y0093400D02*
X0007103Y0093558D01*
X0007109Y0093716D01*
X0007119Y0093874D01*
X0007133Y0094032D01*
X0007151Y0094189D01*
X0007172Y0094346D01*
X0007198Y0094502D01*
X0007228Y0094658D01*
X0007261Y0094813D01*
X0007299Y0094966D01*
X0007340Y0095119D01*
X0007385Y0095271D01*
X0007434Y0095422D01*
X0007487Y0095571D01*
X0007543Y0095719D01*
X0007603Y0095865D01*
X0007667Y0096010D01*
X0007735Y0096153D01*
X0007806Y0096295D01*
X0007880Y0096435D01*
X0007958Y0096572D01*
X0008040Y0096708D01*
X0008124Y0096842D01*
X0008213Y0096973D01*
X0008304Y0097102D01*
X0008399Y0097229D01*
X0008496Y0097354D01*
X0008597Y0097476D01*
X0008701Y0097595D01*
X0008808Y0097712D01*
X0008918Y0097826D01*
X0009031Y0097937D01*
X0009146Y0098046D01*
X0009264Y0098151D01*
X0009385Y0098253D01*
X0009508Y0098353D01*
X0009634Y0098449D01*
X0009762Y0098542D01*
X0009892Y0098632D01*
X0010025Y0098718D01*
X0010160Y0098802D01*
X0010296Y0098881D01*
X0010435Y0098958D01*
X0010576Y0099030D01*
X0010718Y0099100D01*
X0010862Y0099165D01*
X0011008Y0099227D01*
X0011155Y0099285D01*
X0011304Y0099340D01*
X0011454Y0099391D01*
X0011605Y0099438D01*
X0011757Y0099481D01*
X0011910Y0099520D01*
X0012065Y0099556D01*
X0012220Y0099587D01*
X0012376Y0099615D01*
X0012532Y0099639D01*
X0012689Y0099659D01*
X0012847Y0099675D01*
X0013004Y0099687D01*
X0013163Y0099695D01*
X0013321Y0099699D01*
X0013479Y0099699D01*
X0013637Y0099695D01*
X0013796Y0099687D01*
X0013953Y0099675D01*
X0014111Y0099659D01*
X0014268Y0099639D01*
X0014424Y0099615D01*
X0014580Y0099587D01*
X0014735Y0099556D01*
X0014890Y0099520D01*
X0015043Y0099481D01*
X0015195Y0099438D01*
X0015346Y0099391D01*
X0015496Y0099340D01*
X0015645Y0099285D01*
X0015792Y0099227D01*
X0015938Y0099165D01*
X0016082Y0099100D01*
X0016224Y0099030D01*
X0016365Y0098958D01*
X0016504Y0098881D01*
X0016640Y0098802D01*
X0016775Y0098718D01*
X0016908Y0098632D01*
X0017038Y0098542D01*
X0017166Y0098449D01*
X0017292Y0098353D01*
X0017415Y0098253D01*
X0017536Y0098151D01*
X0017654Y0098046D01*
X0017769Y0097937D01*
X0017882Y0097826D01*
X0017992Y0097712D01*
X0018099Y0097595D01*
X0018203Y0097476D01*
X0018304Y0097354D01*
X0018401Y0097229D01*
X0018496Y0097102D01*
X0018587Y0096973D01*
X0018676Y0096842D01*
X0018760Y0096708D01*
X0018842Y0096572D01*
X0018920Y0096435D01*
X0018994Y0096295D01*
X0019065Y0096153D01*
X0019133Y0096010D01*
X0019197Y0095865D01*
X0019257Y0095719D01*
X0019313Y0095571D01*
X0019366Y0095422D01*
X0019415Y0095271D01*
X0019460Y0095119D01*
X0019501Y0094966D01*
X0019539Y0094813D01*
X0019572Y0094658D01*
X0019602Y0094502D01*
X0019628Y0094346D01*
X0019649Y0094189D01*
X0019667Y0094032D01*
X0019681Y0093874D01*
X0019691Y0093716D01*
X0019697Y0093558D01*
X0019699Y0093400D01*
X0019697Y0093242D01*
X0019691Y0093084D01*
X0019681Y0092926D01*
X0019667Y0092768D01*
X0019649Y0092611D01*
X0019628Y0092454D01*
X0019602Y0092298D01*
X0019572Y0092142D01*
X0019539Y0091987D01*
X0019501Y0091834D01*
X0019460Y0091681D01*
X0019415Y0091529D01*
X0019366Y0091378D01*
X0019313Y0091229D01*
X0019257Y0091081D01*
X0019197Y0090935D01*
X0019133Y0090790D01*
X0019065Y0090647D01*
X0018994Y0090505D01*
X0018920Y0090365D01*
X0018842Y0090228D01*
X0018760Y0090092D01*
X0018676Y0089958D01*
X0018587Y0089827D01*
X0018496Y0089698D01*
X0018401Y0089571D01*
X0018304Y0089446D01*
X0018203Y0089324D01*
X0018099Y0089205D01*
X0017992Y0089088D01*
X0017882Y0088974D01*
X0017769Y0088863D01*
X0017654Y0088754D01*
X0017536Y0088649D01*
X0017415Y0088547D01*
X0017292Y0088447D01*
X0017166Y0088351D01*
X0017038Y0088258D01*
X0016908Y0088168D01*
X0016775Y0088082D01*
X0016640Y0087998D01*
X0016504Y0087919D01*
X0016365Y0087842D01*
X0016224Y0087770D01*
X0016082Y0087700D01*
X0015938Y0087635D01*
X0015792Y0087573D01*
X0015645Y0087515D01*
X0015496Y0087460D01*
X0015346Y0087409D01*
X0015195Y0087362D01*
X0015043Y0087319D01*
X0014890Y0087280D01*
X0014735Y0087244D01*
X0014580Y0087213D01*
X0014424Y0087185D01*
X0014268Y0087161D01*
X0014111Y0087141D01*
X0013953Y0087125D01*
X0013796Y0087113D01*
X0013637Y0087105D01*
X0013479Y0087101D01*
X0013321Y0087101D01*
X0013163Y0087105D01*
X0013004Y0087113D01*
X0012847Y0087125D01*
X0012689Y0087141D01*
X0012532Y0087161D01*
X0012376Y0087185D01*
X0012220Y0087213D01*
X0012065Y0087244D01*
X0011910Y0087280D01*
X0011757Y0087319D01*
X0011605Y0087362D01*
X0011454Y0087409D01*
X0011304Y0087460D01*
X0011155Y0087515D01*
X0011008Y0087573D01*
X0010862Y0087635D01*
X0010718Y0087700D01*
X0010576Y0087770D01*
X0010435Y0087842D01*
X0010296Y0087919D01*
X0010160Y0087998D01*
X0010025Y0088082D01*
X0009892Y0088168D01*
X0009762Y0088258D01*
X0009634Y0088351D01*
X0009508Y0088447D01*
X0009385Y0088547D01*
X0009264Y0088649D01*
X0009146Y0088754D01*
X0009031Y0088863D01*
X0008918Y0088974D01*
X0008808Y0089088D01*
X0008701Y0089205D01*
X0008597Y0089324D01*
X0008496Y0089446D01*
X0008399Y0089571D01*
X0008304Y0089698D01*
X0008213Y0089827D01*
X0008124Y0089958D01*
X0008040Y0090092D01*
X0007958Y0090228D01*
X0007880Y0090365D01*
X0007806Y0090505D01*
X0007735Y0090647D01*
X0007667Y0090790D01*
X0007603Y0090935D01*
X0007543Y0091081D01*
X0007487Y0091229D01*
X0007434Y0091378D01*
X0007385Y0091529D01*
X0007340Y0091681D01*
X0007299Y0091834D01*
X0007261Y0091987D01*
X0007228Y0092142D01*
X0007198Y0092298D01*
X0007172Y0092454D01*
X0007151Y0092611D01*
X0007133Y0092768D01*
X0007119Y0092926D01*
X0007109Y0093084D01*
X0007103Y0093242D01*
X0007101Y0093400D01*
D11*
X0011247Y0084002D02*
X0010880Y0083635D01*
X0010880Y0082167D01*
X0011247Y0081800D01*
X0011981Y0081800D01*
X0012348Y0082167D01*
X0013090Y0081800D02*
X0014558Y0083268D01*
X0014558Y0083635D01*
X0014191Y0084002D01*
X0013457Y0084002D01*
X0013090Y0083635D01*
X0012348Y0083635D02*
X0011981Y0084002D01*
X0011247Y0084002D01*
X0013090Y0081800D02*
X0014558Y0081800D01*
X0024980Y0090567D02*
X0025347Y0090200D01*
X0026081Y0090200D01*
X0026448Y0090567D01*
X0027190Y0091301D02*
X0028658Y0091301D01*
X0028291Y0090200D02*
X0028291Y0092402D01*
X0027190Y0091301D01*
X0026448Y0092035D02*
X0026081Y0092402D01*
X0025347Y0092402D01*
X0024980Y0092035D01*
X0024980Y0090567D01*
X0046000Y0089102D02*
X0046000Y0086900D01*
X0046000Y0087634D02*
X0047101Y0087634D01*
X0047468Y0088001D01*
X0047468Y0088735D01*
X0047101Y0089102D01*
X0046000Y0089102D01*
X0046734Y0087634D02*
X0047468Y0086900D01*
X0048210Y0087267D02*
X0048577Y0086900D01*
X0049311Y0086900D01*
X0049678Y0087267D01*
X0049678Y0087634D01*
X0049311Y0088001D01*
X0048944Y0088001D01*
X0049311Y0088001D02*
X0049678Y0088368D01*
X0049678Y0088735D01*
X0049311Y0089102D01*
X0048577Y0089102D01*
X0048210Y0088735D01*
X0048210Y0092600D02*
X0049678Y0094068D01*
X0049678Y0094435D01*
X0049311Y0094802D01*
X0048577Y0094802D01*
X0048210Y0094435D01*
X0047468Y0094435D02*
X0047468Y0093701D01*
X0047101Y0093334D01*
X0046000Y0093334D01*
X0046734Y0093334D02*
X0047468Y0092600D01*
X0048210Y0092600D02*
X0049678Y0092600D01*
X0047468Y0094435D02*
X0047101Y0094802D01*
X0046000Y0094802D01*
X0046000Y0092600D01*
X0046367Y0083402D02*
X0046000Y0083035D01*
X0046000Y0081567D01*
X0046367Y0081200D01*
X0047101Y0081200D01*
X0047468Y0081567D01*
X0048210Y0081200D02*
X0049678Y0081200D01*
X0048944Y0081200D02*
X0048944Y0083402D01*
X0048210Y0082668D01*
X0047468Y0083035D02*
X0047101Y0083402D01*
X0046367Y0083402D01*
X0051598Y0061776D02*
X0051598Y0059574D01*
X0053066Y0059574D01*
X0053808Y0059574D02*
X0055276Y0059574D01*
X0056018Y0059574D02*
X0057119Y0059574D01*
X0057486Y0059941D01*
X0057486Y0061409D01*
X0057119Y0061776D01*
X0056018Y0061776D01*
X0056018Y0059574D01*
X0054542Y0060675D02*
X0053808Y0060675D01*
X0053808Y0061776D02*
X0053808Y0059574D01*
X0053808Y0061776D02*
X0055276Y0061776D01*
X0058228Y0061042D02*
X0058962Y0061776D01*
X0058962Y0059574D01*
X0058228Y0059574D02*
X0059696Y0059574D01*
X0048398Y0042342D02*
X0047664Y0041975D01*
X0046930Y0041241D01*
X0048031Y0041241D01*
X0048398Y0040874D01*
X0048398Y0040507D01*
X0048031Y0040140D01*
X0047297Y0040140D01*
X0046930Y0040507D01*
X0046930Y0041241D01*
X0046188Y0041241D02*
X0045821Y0040874D01*
X0044720Y0040874D01*
X0045454Y0040874D02*
X0046188Y0040140D01*
X0046188Y0041241D02*
X0046188Y0041975D01*
X0045821Y0042342D01*
X0044720Y0042342D01*
X0044720Y0040140D01*
X0044720Y0036642D02*
X0045821Y0036642D01*
X0046188Y0036275D01*
X0046188Y0035541D01*
X0045821Y0035174D01*
X0044720Y0035174D01*
X0045454Y0035174D02*
X0046188Y0034440D01*
X0046930Y0035541D02*
X0048398Y0035541D01*
X0048031Y0034440D02*
X0048031Y0036642D01*
X0046930Y0035541D01*
X0044720Y0034440D02*
X0044720Y0036642D01*
X0042073Y0033962D02*
X0041339Y0033228D01*
X0040597Y0033228D02*
X0039863Y0031760D01*
X0039129Y0033228D01*
X0041339Y0031760D02*
X0042807Y0031760D01*
X0042073Y0031760D02*
X0042073Y0033962D01*
X0041578Y0030902D02*
X0041578Y0029100D01*
X0040677Y0029100D01*
X0040377Y0029400D01*
X0040377Y0030001D01*
X0040677Y0030301D01*
X0041578Y0030301D01*
X0039737Y0030001D02*
X0039737Y0029701D01*
X0038536Y0029701D01*
X0038536Y0030001D02*
X0038836Y0030301D01*
X0039436Y0030301D01*
X0039737Y0030001D01*
X0039436Y0029100D02*
X0038836Y0029100D01*
X0038536Y0029400D01*
X0038536Y0030001D01*
X0037895Y0030001D02*
X0037895Y0029100D01*
X0037895Y0030001D02*
X0037595Y0030301D01*
X0036694Y0030301D01*
X0036694Y0029100D01*
X0036053Y0029100D02*
X0035153Y0029100D01*
X0034852Y0029400D01*
X0034852Y0030001D01*
X0035153Y0030301D01*
X0036053Y0030301D01*
X0036053Y0028800D01*
X0035753Y0028499D01*
X0035453Y0028499D01*
X0036694Y0027902D02*
X0037895Y0027902D01*
X0037295Y0027902D02*
X0037295Y0026100D01*
X0037676Y0024902D02*
X0037676Y0022700D01*
X0038777Y0022700D01*
X0039144Y0023067D01*
X0039144Y0023801D01*
X0038777Y0024168D01*
X0037676Y0024168D01*
X0036934Y0024168D02*
X0036934Y0022700D01*
X0035833Y0022700D01*
X0035466Y0023067D01*
X0035466Y0024168D01*
X0034724Y0023801D02*
X0034724Y0022700D01*
X0034724Y0023801D02*
X0034357Y0024168D01*
X0033623Y0024168D01*
X0033256Y0023801D01*
X0032517Y0024168D02*
X0031783Y0024168D01*
X0032150Y0024535D02*
X0032150Y0023067D01*
X0032517Y0022700D01*
X0033256Y0022700D02*
X0033256Y0024902D01*
X0032984Y0026100D02*
X0032984Y0027301D01*
X0033625Y0027902D02*
X0033925Y0027902D01*
X0033925Y0026100D01*
X0033625Y0026100D02*
X0034225Y0026100D01*
X0032984Y0026100D02*
X0032083Y0026100D01*
X0031783Y0026400D01*
X0031783Y0027301D01*
X0031143Y0027001D02*
X0031143Y0026100D01*
X0030242Y0026100D01*
X0029942Y0026400D01*
X0030242Y0026701D01*
X0031143Y0026701D01*
X0031143Y0027001D02*
X0030842Y0027301D01*
X0030242Y0027301D01*
X0029301Y0027601D02*
X0029301Y0027001D01*
X0029001Y0026701D01*
X0028100Y0026701D01*
X0028100Y0026100D02*
X0028100Y0027902D01*
X0029001Y0027902D01*
X0029301Y0027601D01*
X0029001Y0029100D02*
X0028100Y0029100D01*
X0028100Y0030902D01*
X0029001Y0030902D01*
X0029301Y0030601D01*
X0029301Y0029400D01*
X0029001Y0029100D01*
X0029942Y0029400D02*
X0029942Y0030001D01*
X0030242Y0030301D01*
X0030842Y0030301D01*
X0031143Y0030001D01*
X0031143Y0029701D01*
X0029942Y0029701D01*
X0029942Y0029400D02*
X0030242Y0029100D01*
X0030842Y0029100D01*
X0031783Y0029100D02*
X0032684Y0029100D01*
X0032984Y0029400D01*
X0032684Y0029701D01*
X0032083Y0029701D01*
X0031783Y0030001D01*
X0032083Y0030301D01*
X0032984Y0030301D01*
X0033625Y0030301D02*
X0033925Y0030301D01*
X0033925Y0029100D01*
X0033625Y0029100D02*
X0034225Y0029100D01*
X0033925Y0030902D02*
X0033925Y0031202D01*
X0033236Y0031760D02*
X0034704Y0031760D01*
X0035446Y0031760D02*
X0036180Y0031760D01*
X0035813Y0031760D02*
X0035813Y0033228D01*
X0035446Y0033228D01*
X0034704Y0033228D02*
X0033236Y0031760D01*
X0032497Y0031760D02*
X0031763Y0031760D01*
X0032130Y0031760D02*
X0032130Y0033228D01*
X0031763Y0033228D01*
X0031021Y0033228D02*
X0030654Y0032861D01*
X0029553Y0032861D01*
X0029553Y0031760D02*
X0029553Y0033962D01*
X0030654Y0033962D01*
X0031021Y0033595D01*
X0031021Y0033228D01*
X0030654Y0032861D02*
X0031021Y0032494D01*
X0031021Y0032127D01*
X0030654Y0031760D01*
X0029553Y0031760D01*
X0028814Y0031760D02*
X0028080Y0031760D01*
X0028447Y0031760D02*
X0028447Y0033228D01*
X0028080Y0033228D01*
X0028447Y0033962D02*
X0028447Y0034329D01*
X0032130Y0034329D02*
X0032130Y0033962D01*
X0033236Y0033228D02*
X0034704Y0033228D01*
X0035813Y0033962D02*
X0035813Y0034329D01*
X0038536Y0027301D02*
X0038536Y0026100D01*
X0038536Y0026701D02*
X0039136Y0027301D01*
X0039436Y0027301D01*
X0040370Y0027301D02*
X0040971Y0027301D01*
X0041271Y0027001D01*
X0041271Y0026100D01*
X0040370Y0026100D01*
X0040070Y0026400D01*
X0040370Y0026701D01*
X0041271Y0026701D01*
X0041912Y0027301D02*
X0041912Y0026100D01*
X0043113Y0026100D02*
X0043113Y0027001D01*
X0042813Y0027301D01*
X0041912Y0027301D01*
X0043753Y0027001D02*
X0044054Y0027301D01*
X0044954Y0027301D01*
X0044954Y0027902D02*
X0044954Y0026100D01*
X0044054Y0026100D01*
X0043753Y0026400D01*
X0043753Y0027001D01*
X0045595Y0027001D02*
X0045895Y0027301D01*
X0046496Y0027301D01*
X0046796Y0027001D01*
X0046796Y0026701D01*
X0045595Y0026701D01*
X0045595Y0027001D02*
X0045595Y0026400D01*
X0045895Y0026100D01*
X0046496Y0026100D01*
X0047436Y0026100D02*
X0047436Y0027301D01*
X0047737Y0027301D01*
X0048037Y0027001D01*
X0048337Y0027301D01*
X0048638Y0027001D01*
X0048638Y0026100D01*
X0048037Y0026100D02*
X0048037Y0027001D01*
X0046803Y0028499D02*
X0046502Y0028499D01*
X0046803Y0028499D02*
X0047103Y0028800D01*
X0047103Y0030301D01*
X0046810Y0030101D02*
X0047544Y0030468D01*
X0047911Y0030468D01*
X0048278Y0030101D01*
X0048278Y0029367D01*
X0047911Y0029000D01*
X0047177Y0029000D01*
X0046810Y0029367D01*
X0047103Y0029100D02*
X0046202Y0029100D01*
X0045902Y0029400D01*
X0045902Y0030301D01*
X0046068Y0030101D02*
X0045701Y0029734D01*
X0044600Y0029734D01*
X0044961Y0030301D02*
X0044060Y0030301D01*
X0044060Y0030902D02*
X0044060Y0029100D01*
X0044961Y0029100D01*
X0045261Y0029400D01*
X0045261Y0030001D01*
X0044961Y0030301D01*
X0045334Y0029734D02*
X0046068Y0029000D01*
X0046068Y0030101D02*
X0046068Y0030835D01*
X0045701Y0031202D01*
X0044600Y0031202D01*
X0044600Y0029000D01*
X0046810Y0030101D02*
X0046810Y0031202D01*
X0048278Y0031202D01*
X0049089Y0024902D02*
X0047621Y0022700D01*
X0046879Y0022700D02*
X0046879Y0023801D01*
X0046512Y0024168D01*
X0046145Y0023801D01*
X0046145Y0022700D01*
X0045411Y0022700D02*
X0045411Y0024168D01*
X0045778Y0024168D01*
X0046145Y0023801D01*
X0044669Y0023801D02*
X0044302Y0024168D01*
X0043568Y0024168D01*
X0043201Y0023801D01*
X0043201Y0023067D01*
X0043568Y0022700D01*
X0044302Y0022700D01*
X0044669Y0023067D01*
X0044669Y0023801D01*
X0042459Y0024168D02*
X0041358Y0024168D01*
X0040991Y0023801D01*
X0040991Y0023067D01*
X0041358Y0022700D01*
X0042459Y0022700D01*
X0040253Y0022700D02*
X0039886Y0022700D01*
X0039886Y0023067D01*
X0040253Y0023067D01*
X0040253Y0022700D01*
X0031044Y0022700D02*
X0030310Y0022700D01*
X0030677Y0022700D02*
X0030677Y0024168D01*
X0030310Y0024168D01*
X0029568Y0024168D02*
X0028467Y0024168D01*
X0028100Y0023801D01*
X0028100Y0023067D01*
X0028467Y0022700D01*
X0029568Y0022700D01*
X0029568Y0022333D02*
X0029568Y0024168D01*
X0030677Y0024902D02*
X0030677Y0025269D01*
X0029568Y0022333D02*
X0029201Y0021966D01*
X0028834Y0021966D01*
X0014578Y0038000D02*
X0013110Y0038000D01*
X0013844Y0038000D02*
X0013844Y0040202D01*
X0013110Y0039468D01*
X0012368Y0039835D02*
X0012368Y0039101D01*
X0012001Y0038734D01*
X0010900Y0038734D01*
X0011634Y0038734D02*
X0012368Y0038000D01*
X0010900Y0038000D02*
X0010900Y0040202D01*
X0012001Y0040202D01*
X0012368Y0039835D01*
X0010911Y0044600D02*
X0010177Y0044600D01*
X0009810Y0044967D01*
X0009810Y0045701D02*
X0010544Y0046068D01*
X0010911Y0046068D01*
X0011278Y0045701D01*
X0011278Y0044967D01*
X0010911Y0044600D01*
X0009810Y0045701D02*
X0009810Y0046802D01*
X0011278Y0046802D01*
X0009068Y0046435D02*
X0008701Y0046802D01*
X0007967Y0046802D01*
X0007600Y0046435D01*
X0007600Y0044967D01*
X0007967Y0044600D01*
X0008701Y0044600D01*
X0009068Y0044967D01*
X0014200Y0044967D02*
X0014567Y0044600D01*
X0015301Y0044600D01*
X0015668Y0044967D01*
X0016410Y0044967D02*
X0016777Y0044600D01*
X0017511Y0044600D01*
X0017878Y0044967D01*
X0017878Y0045334D01*
X0017511Y0045701D01*
X0017144Y0045701D01*
X0017511Y0045701D02*
X0017878Y0046068D01*
X0017878Y0046435D01*
X0017511Y0046802D01*
X0016777Y0046802D01*
X0016410Y0046435D01*
X0015668Y0046435D02*
X0015301Y0046802D01*
X0014567Y0046802D01*
X0014200Y0046435D01*
X0014200Y0044967D01*
X0049830Y0024168D02*
X0049830Y0021966D01*
X0049830Y0022700D02*
X0050931Y0022700D01*
X0051298Y0023067D01*
X0051298Y0023801D01*
X0050931Y0024168D01*
X0049830Y0024168D01*
X0052040Y0024168D02*
X0052774Y0024168D01*
X0052407Y0024535D02*
X0052407Y0023067D01*
X0052774Y0022700D01*
X0053514Y0022700D02*
X0053514Y0024168D01*
X0054248Y0024168D02*
X0054615Y0024168D01*
X0054248Y0024168D02*
X0053514Y0023434D01*
X0055355Y0023067D02*
X0055722Y0023434D01*
X0056823Y0023434D01*
X0056823Y0023801D02*
X0056823Y0022700D01*
X0055722Y0022700D01*
X0055355Y0023067D01*
X0055722Y0024168D02*
X0056456Y0024168D01*
X0056823Y0023801D01*
X0057565Y0024168D02*
X0057565Y0022700D01*
X0057565Y0024168D02*
X0058666Y0024168D01*
X0059033Y0023801D01*
X0059033Y0022700D01*
X0059775Y0023067D02*
X0059775Y0023801D01*
X0060142Y0024168D01*
X0061243Y0024168D01*
X0061243Y0024902D02*
X0061243Y0022700D01*
X0060142Y0022700D01*
X0059775Y0023067D01*
X0061985Y0023067D02*
X0061985Y0023801D01*
X0062352Y0024168D01*
X0063086Y0024168D01*
X0063453Y0023801D01*
X0063453Y0023434D01*
X0061985Y0023434D01*
X0061985Y0023067D02*
X0062352Y0022700D01*
X0063086Y0022700D01*
X0064195Y0022700D02*
X0064195Y0024168D01*
X0064562Y0024168D01*
X0064929Y0023801D01*
X0065296Y0024168D01*
X0065663Y0023801D01*
X0065663Y0022700D01*
X0064929Y0022700D02*
X0064929Y0023801D01*
X0066405Y0022700D02*
X0067872Y0024902D01*
X0068614Y0024168D02*
X0068981Y0024168D01*
X0068981Y0022700D01*
X0068614Y0022700D02*
X0069348Y0022700D01*
X0070088Y0022700D02*
X0071189Y0022700D01*
X0071556Y0023067D01*
X0071556Y0023801D01*
X0071189Y0024168D01*
X0070088Y0024168D01*
X0070088Y0024902D02*
X0070088Y0022700D01*
X0072298Y0022700D02*
X0073032Y0022700D01*
X0072665Y0022700D02*
X0072665Y0024168D01*
X0072298Y0024168D01*
X0072665Y0024902D02*
X0072665Y0025269D01*
X0073771Y0024168D02*
X0075239Y0024168D01*
X0073771Y0022700D01*
X0075239Y0022700D01*
X0075981Y0022700D02*
X0076715Y0022700D01*
X0076348Y0022700D02*
X0076348Y0024168D01*
X0075981Y0024168D01*
X0076348Y0024902D02*
X0076348Y0025269D01*
X0068981Y0025269D02*
X0068981Y0024902D01*
X0089800Y0036604D02*
X0090167Y0036237D01*
X0090901Y0036237D01*
X0091268Y0036604D01*
X0092010Y0036604D02*
X0092377Y0036237D01*
X0093111Y0036237D01*
X0093478Y0036604D01*
X0093478Y0036971D01*
X0093111Y0037338D01*
X0092010Y0037338D01*
X0092010Y0036604D01*
X0092010Y0037338D02*
X0092744Y0038072D01*
X0093478Y0038439D01*
X0091268Y0038072D02*
X0090901Y0038439D01*
X0090167Y0038439D01*
X0089800Y0038072D01*
X0089800Y0036604D01*
X0075284Y0091700D02*
X0074383Y0091700D01*
X0074383Y0093502D01*
X0075284Y0093502D01*
X0075584Y0093201D01*
X0075584Y0092901D01*
X0075284Y0092601D01*
X0074383Y0092601D01*
X0073743Y0092301D02*
X0073743Y0092000D01*
X0073442Y0091700D01*
X0072842Y0091700D01*
X0072542Y0092000D01*
X0071901Y0092000D02*
X0071901Y0093502D01*
X0072542Y0093201D02*
X0072542Y0092901D01*
X0072842Y0092601D01*
X0073442Y0092601D01*
X0073743Y0092301D01*
X0073743Y0093201D02*
X0073442Y0093502D01*
X0072842Y0093502D01*
X0072542Y0093201D01*
X0070700Y0093502D02*
X0070700Y0092000D01*
X0071000Y0091700D01*
X0071601Y0091700D01*
X0071901Y0092000D01*
X0075284Y0091700D02*
X0075584Y0092000D01*
X0075584Y0092301D01*
X0075284Y0092601D01*
D12*
X0023445Y0072739D02*
X0023447Y0072778D01*
X0023453Y0072817D01*
X0023463Y0072855D01*
X0023476Y0072892D01*
X0023493Y0072927D01*
X0023513Y0072961D01*
X0023537Y0072992D01*
X0023564Y0073021D01*
X0023593Y0073047D01*
X0023625Y0073070D01*
X0023659Y0073090D01*
X0023695Y0073106D01*
X0023732Y0073118D01*
X0023771Y0073127D01*
X0023810Y0073132D01*
X0023849Y0073133D01*
X0023888Y0073130D01*
X0023927Y0073123D01*
X0023964Y0073112D01*
X0024001Y0073098D01*
X0024036Y0073080D01*
X0024069Y0073059D01*
X0024100Y0073034D01*
X0024128Y0073007D01*
X0024153Y0072977D01*
X0024175Y0072944D01*
X0024194Y0072910D01*
X0024209Y0072874D01*
X0024221Y0072836D01*
X0024229Y0072798D01*
X0024233Y0072759D01*
X0024233Y0072719D01*
X0024229Y0072680D01*
X0024221Y0072642D01*
X0024209Y0072604D01*
X0024194Y0072568D01*
X0024175Y0072534D01*
X0024153Y0072501D01*
X0024128Y0072471D01*
X0024100Y0072444D01*
X0024069Y0072419D01*
X0024036Y0072398D01*
X0024001Y0072380D01*
X0023964Y0072366D01*
X0023927Y0072355D01*
X0023888Y0072348D01*
X0023849Y0072345D01*
X0023810Y0072346D01*
X0023771Y0072351D01*
X0023732Y0072360D01*
X0023695Y0072372D01*
X0023659Y0072388D01*
X0023625Y0072408D01*
X0023593Y0072431D01*
X0023564Y0072457D01*
X0023537Y0072486D01*
X0023513Y0072517D01*
X0023493Y0072551D01*
X0023476Y0072586D01*
X0023463Y0072623D01*
X0023453Y0072661D01*
X0023447Y0072700D01*
X0023445Y0072739D01*
D13*
X0022957Y0072268D02*
X0022957Y0073843D01*
X0024532Y0073843D01*
X0041068Y0073843D02*
X0042643Y0073843D01*
X0042643Y0072268D01*
X0042643Y0055732D02*
X0042643Y0054157D01*
X0041068Y0054157D01*
X0024532Y0054157D02*
X0022957Y0054157D01*
X0022957Y0055732D01*
D14*
X0046904Y0053991D02*
X0046904Y0052809D01*
X0046904Y0048085D02*
X0059699Y0048085D01*
X0059699Y0052809D02*
X0059699Y0053991D01*
X0059699Y0058715D02*
X0046904Y0058715D01*
X0061195Y0072008D02*
X0064739Y0072008D01*
X0058439Y0081850D02*
X0058439Y0090118D01*
X0082061Y0072008D02*
X0085605Y0072008D01*
X0088361Y0081850D02*
X0088361Y0090118D01*
X0088150Y0059143D02*
X0086576Y0057568D01*
X0086576Y0053237D01*
X0088150Y0059143D02*
X0094450Y0059143D01*
X0096024Y0057568D01*
X0096024Y0053237D01*
X0096024Y0045363D02*
X0096024Y0039457D01*
X0086576Y0039457D01*
X0086576Y0045363D01*
D15*
X0050054Y0059306D02*
X0047298Y0059306D01*
D16*
X0087300Y0050800D02*
X0095300Y0050800D01*
D17*
X0018361Y0066087D02*
X0018361Y0068252D01*
X0013381Y0074315D02*
X0012298Y0074315D01*
X0007284Y0075280D02*
X0007286Y0075324D01*
X0007292Y0075367D01*
X0007302Y0075410D01*
X0007315Y0075451D01*
X0007332Y0075491D01*
X0007353Y0075530D01*
X0007377Y0075566D01*
X0007404Y0075600D01*
X0007434Y0075632D01*
X0007467Y0075661D01*
X0007503Y0075686D01*
X0007540Y0075709D01*
X0007580Y0075728D01*
X0007621Y0075743D01*
X0007663Y0075755D01*
X0007706Y0075763D01*
X0007749Y0075767D01*
X0007793Y0075767D01*
X0007836Y0075763D01*
X0007879Y0075755D01*
X0007921Y0075743D01*
X0007962Y0075728D01*
X0008002Y0075709D01*
X0008039Y0075686D01*
X0008075Y0075661D01*
X0008108Y0075632D01*
X0008138Y0075600D01*
X0008165Y0075566D01*
X0008189Y0075530D01*
X0008210Y0075491D01*
X0008227Y0075451D01*
X0008240Y0075410D01*
X0008250Y0075367D01*
X0008256Y0075324D01*
X0008258Y0075280D01*
X0008256Y0075236D01*
X0008250Y0075193D01*
X0008240Y0075150D01*
X0008227Y0075109D01*
X0008210Y0075069D01*
X0008189Y0075030D01*
X0008165Y0074994D01*
X0008138Y0074960D01*
X0008108Y0074928D01*
X0008075Y0074899D01*
X0008039Y0074874D01*
X0008002Y0074851D01*
X0007962Y0074832D01*
X0007921Y0074817D01*
X0007879Y0074805D01*
X0007836Y0074797D01*
X0007793Y0074793D01*
X0007749Y0074793D01*
X0007706Y0074797D01*
X0007663Y0074805D01*
X0007621Y0074817D01*
X0007580Y0074832D01*
X0007540Y0074851D01*
X0007503Y0074874D01*
X0007467Y0074899D01*
X0007434Y0074928D01*
X0007404Y0074960D01*
X0007377Y0074994D01*
X0007353Y0075030D01*
X0007332Y0075069D01*
X0007315Y0075109D01*
X0007302Y0075150D01*
X0007292Y0075193D01*
X0007286Y0075236D01*
X0007284Y0075280D01*
X0007318Y0068252D02*
X0007318Y0066087D01*
X0012298Y0060024D02*
X0013381Y0060024D01*
M02*
