%
M48
M72
T01C0.01300
T02C0.01600
T03C0.03543
T04C0.04000
T05C0.12598
%
T01
X7000Y41800
X22600Y44200
X22600Y50200
X30400Y50200
X32200Y46000
X34000Y41800
X44800Y70600
X21400Y86200
X46600Y98200
X67000Y98200
X80800Y41200
T02
X67000Y65800
T03
X64739Y85000
X82061Y85000
T04
X11800Y10200
X11800Y20200
X11800Y30200
X21800Y30200
X21800Y20200
X21800Y10200
T05
X53400Y13400
X93400Y13400
X13400Y93400
M30
